<svg xmlns="http://www.w3.org/2000/svg" xmlns:xlink="http://www.w3.org/1999/xlink" width="500" zoomAndPan="magnify" viewBox="0 0 375 374.999991" height="500" preserveAspectRatio="xMidYMid meet" version="1.0"><defs><clipPath id="id1"><path d="M 0 167.363281 L 375 167.363281 L 375 222.113281 L 0 222.113281 Z M 0 167.363281 " clip-rule="nonzero"/></clipPath></defs><g clip-path="url(#id1)"><path fill="#24252a" d="M 0 167.363281 L 375 167.363281 L 375 222.113281 L 0 222.113281 Z M 0 167.363281 " fill-opacity="1" fill-rule="nonzero"/></g><path fill="#ffffff" d="M 120.273438 208.894531 C 120.105469 208.753906 119.90625 208.730469 119.796875 208.84375 C 119.683594 208.972656 119.726562 209.238281 119.890625 209.429688 C 121.667969 211.550781 124.125 212.863281 126.832031 212.871094 C 129.535156 212.863281 131.992188 211.550781 133.769531 209.429688 C 133.929688 209.234375 133.980469 208.972656 133.859375 208.84375 C 133.757812 208.730469 133.550781 208.753906 133.382812 208.894531 C 131.59375 210.523438 129.316406 211.503906 126.824219 211.507812 C 124.339844 211.5 122.0625 210.523438 120.273438 208.894531 Z M 114.074219 202.105469 C 114.074219 195.042969 119.796875 189.3125 126.859375 189.3125 C 133.917969 189.3125 139.644531 195.042969 139.644531 202.105469 C 139.644531 209.171875 133.917969 214.898438 126.859375 214.898438 C 119.796875 214.898438 114.074219 209.171875 114.074219 202.105469 Z M 109.359375 201.921875 C 108.058594 201.902344 106.746094 201.890625 105.421875 201.890625 C 95.109375 201.890625 85.472656 202.492188 77.277344 203.535156 C 86.238281 203.171875 97.5 203.105469 109.371094 204.003906 C 109.339844 203.632812 109.332031 203.265625 109.332031 202.882812 C 109.328125 202.566406 109.335938 202.242188 109.359375 201.921875 Z M 107.792969 178.230469 C 108.324219 177.523438 107.074219 177.363281 107.074219 177.363281 C 105.226562 177.125 103.390625 176.921875 101.589844 176.738281 C 89.152344 175.511719 77.898438 175.695312 70.339844 178.648438 C 65.488281 180.539062 60.800781 182.511719 53.929688 185.257812 C 64.71875 185.257812 95.589844 185.332031 95.589844 185.332031 C 99.902344 185.332031 102.289062 183.488281 103.222656 182.628906 C 103.222656 182.632812 107.550781 178.554688 107.792969 178.230469 Z M 151.394531 186.238281 C 139.511719 183.449219 125.1875 180.210938 111.421875 178.148438 C 110.09375 179.429688 108.652344 180.824219 107.171875 182.242188 C 126.164062 182.761719 143.980469 185.136719 151.394531 186.238281 Z M 145.011719 201.347656 C 141.773438 204.773438 145.910156 206.746094 144.59375 206.976562 L 140.292969 206.976562 C 140.84375 205.457031 141.140625 203.8125 141.140625 202.101562 C 141.140625 194.207031 134.75 187.808594 126.859375 187.808594 C 118.96875 187.808594 112.574219 194.207031 112.574219 202.101562 C 112.574219 204.25 113.046875 206.28125 113.894531 208.105469 C 84.921875 205.261719 58.289062 208.652344 58.289062 208.652344 L 46.171875 211.15625 C 48.1875 208.6875 49.398438 205.539062 49.398438 202.105469 C 49.398438 194.210938 43.003906 187.8125 35.117188 187.8125 C 27.226562 187.8125 20.832031 194.210938 20.832031 202.105469 C 20.832031 205.257812 21.851562 208.171875 23.582031 210.535156 C 16.386719 210.148438 10.53125 209.71875 7.476562 207.886719 C 5.660156 206.820312 13.753906 206.839844 8.777344 195.378906 C 14.179688 194.933594 19.519531 194.253906 19.519531 193.3125 L 19.519531 193.195312 L 7.738281 193.195312 C 16.84375 186.855469 27.863281 184.546875 41.605469 184.546875 C 47.058594 184.328125 51.359375 183.421875 55.253906 182.222656 C 60.679688 180.15625 66.300781 178.101562 69.667969 176.925781 C 88.84375 170.242188 128.511719 179.320312 154.125 185.363281 L 153.914062 186.253906 C 153.65625 187.542969 151.648438 195.265625 145.011719 201.347656 Z M 28.53125 208.894531 C 28.363281 208.753906 28.160156 208.730469 28.054688 208.847656 C 27.9375 208.972656 27.984375 209.238281 28.148438 209.433594 C 29.925781 211.550781 32.382812 212.863281 35.089844 212.871094 C 37.789062 212.863281 40.246094 211.550781 42.023438 209.433594 C 42.1875 209.234375 42.234375 208.972656 42.117188 208.847656 C 42.011719 208.730469 41.808594 208.753906 41.640625 208.894531 C 39.851562 210.527344 37.574219 211.503906 35.082031 211.507812 C 32.597656 211.5 30.320312 210.523438 28.53125 208.894531 Z M 22.332031 202.105469 C 22.332031 195.042969 28.058594 189.3125 35.117188 189.3125 C 42.175781 189.3125 47.902344 195.042969 47.902344 202.105469 C 47.902344 209.171875 42.175781 214.898438 35.117188 214.898438 C 28.058594 214.898438 22.332031 209.171875 22.332031 202.105469 Z M 22.332031 202.105469 " fill-opacity="1" fill-rule="nonzero"/><path fill="#ffffff" d="M 173.292969 186.042969 L 172.835938 190.441406 L 161.332031 190.441406 L 161.332031 189.214844 L 163.371094 189.214844 L 163.371094 176.042969 L 161.332031 176.042969 L 161.332031 174.816406 L 172.597656 174.816406 L 173.078125 179.191406 L 171.851562 179.335938 L 171.371094 176.042969 L 164.742188 176.042969 L 164.742188 181.882812 L 172.308594 181.882812 L 172.308594 183.109375 L 164.742188 183.109375 L 164.742188 189.214844 L 171.613281 189.214844 L 172.09375 185.921875 Z M 183.382812 186.691406 L 184.511719 186.957031 C 184.351562 187.886719 183.925781 188.742188 183.238281 189.527344 C 182.566406 190.296875 181.53125 190.683594 180.140625 190.683594 C 178.683594 190.683594 177.53125 190.203125 176.679688 189.242188 C 175.832031 188.277344 175.40625 186.957031 175.40625 185.273438 C 175.40625 184.359375 175.574219 183.460938 175.910156 182.582031 C 176.25 181.699219 176.769531 180.976562 177.472656 180.417969 C 178.195312 179.839844 179.113281 179.550781 180.234375 179.550781 C 181.691406 179.550781 182.886719 179.9375 183.816406 180.707031 L 184.199219 183.085938 L 183.09375 183.230469 L 182.6875 181.425781 C 182.03125 180.960938 181.210938 180.730469 180.234375 180.730469 C 178.96875 180.730469 178.082031 181.1875 177.570312 182.101562 C 177.074219 182.996094 176.824219 184.023438 176.824219 185.175781 C 176.824219 186.539062 177.121094 187.605469 177.714844 188.375 C 178.304688 189.128906 179.164062 189.503906 180.285156 189.503906 C 181.980469 189.503906 183.015625 188.566406 183.382812 186.691406 Z M 198.371094 189.335938 L 198.371094 190.441406 L 195.058594 190.441406 L 195.058594 188.328125 C 194.71875 189.03125 194.222656 189.601562 193.566406 190.035156 C 192.910156 190.46875 192.148438 190.683594 191.285156 190.683594 C 190.230469 190.683594 189.347656 190.355469 188.644531 189.699219 C 187.9375 189.039062 187.585938 187.984375 187.585938 186.523438 L 187.585938 180.898438 L 185.617188 180.898438 L 185.617188 179.769531 L 188.90625 179.769531 L 188.90625 186.210938 C 188.90625 187.429688 189.164062 188.285156 189.675781 188.785156 C 190.203125 189.265625 190.871094 189.503906 191.667969 189.503906 C 192.628906 189.503906 193.421875 189.128906 194.046875 188.375 C 194.6875 187.621094 195.023438 186.859375 195.058594 186.089844 L 195.058594 180.898438 L 192.703125 180.898438 L 192.703125 179.769531 L 196.378906 179.769531 L 196.378906 189.335938 Z M 200.414062 182.988281 L 200.796875 180.609375 C 201.246094 180.242188 201.78125 179.976562 202.40625 179.816406 C 203.046875 179.640625 203.6875 179.550781 204.328125 179.550781 C 206.796875 179.550781 208.027344 180.746094 208.027344 183.132812 L 208.027344 188.328125 C 208.027344 189.144531 208.339844 189.554688 208.964844 189.554688 C 209.285156 189.554688 209.550781 189.496094 209.757812 189.386719 L 209.78125 190.347656 C 209.429688 190.570312 209.011719 190.683594 208.53125 190.683594 C 207.316406 190.683594 206.707031 189.960938 206.707031 188.519531 L 206.707031 188.472656 C 206.371094 189.046875 205.882812 189.5625 205.242188 190.011719 C 204.617188 190.457031 203.878906 190.683594 203.03125 190.683594 C 202.328125 190.683594 201.605469 190.476562 200.871094 190.058594 C 200.148438 189.625 199.789062 188.839844 199.789062 187.703125 C 199.789062 186.355469 200.324219 185.472656 201.398438 185.058594 C 202.472656 184.625 203.601562 184.410156 204.785156 184.410156 C 205.121094 184.410156 205.449219 184.425781 205.769531 184.457031 C 206.105469 184.472656 206.417969 184.488281 206.707031 184.503906 L 206.707031 183.375 C 206.707031 182.558594 206.515625 181.914062 206.128906 181.449219 C 205.761719 180.96875 205.089844 180.730469 204.113281 180.730469 C 203.3125 180.730469 202.589844 180.890625 201.949219 181.210938 L 201.519531 183.132812 Z M 206.707031 186.523438 L 206.707031 185.539062 C 206.402344 185.507812 206.074219 185.480469 205.722656 185.464844 C 205.371094 185.433594 205 185.417969 204.617188 185.417969 C 203.753906 185.417969 202.960938 185.554688 202.238281 185.828125 C 201.535156 186.082031 201.183594 186.660156 201.183594 187.558594 C 201.183594 188.328125 201.429688 188.847656 201.925781 189.121094 C 202.421875 189.375 202.902344 189.503906 203.367188 189.503906 C 204.167969 189.503906 204.914062 189.234375 205.601562 188.6875 C 206.289062 188.125 206.660156 187.40625 206.707031 186.523438 Z M 224.339844 186.546875 L 223.90625 189.359375 C 222.6875 190.242188 221.007812 190.683594 218.863281 190.683594 C 216.589844 190.683594 214.753906 189.914062 213.359375 188.375 C 211.96875 186.835938 211.269531 184.9375 211.269531 182.675781 C 211.269531 181.1875 211.582031 179.832031 212.207031 178.613281 C 212.847656 177.378906 213.714844 176.402344 214.800781 175.679688 C 215.90625 174.945312 217.15625 174.574219 218.550781 174.574219 C 219.832031 174.574219 220.894531 174.742188 221.746094 175.078125 C 222.609375 175.402344 223.378906 175.839844 224.050781 176.402344 L 224.484375 179.214844 L 223.28125 179.359375 L 222.800781 177.003906 C 222.273438 176.652344 221.710938 176.371094 221.121094 176.160156 C 220.527344 175.9375 219.742188 175.824219 218.765625 175.824219 C 216.972656 175.824219 215.515625 176.472656 214.394531 177.773438 C 213.273438 179.070312 212.710938 180.699219 212.710938 182.652344 C 212.710938 184.625 213.28125 186.25 214.417969 187.535156 C 215.554688 188.800781 217.117188 189.433594 219.101562 189.433594 C 219.824219 189.433594 220.457031 189.386719 221 189.289062 C 221.558594 189.175781 222.113281 188.984375 222.65625 188.710938 L 223.136719 186.402344 Z M 227.414062 182.988281 L 227.796875 180.609375 C 228.246094 180.242188 228.78125 179.976562 229.40625 179.816406 C 230.046875 179.640625 230.6875 179.550781 231.328125 179.550781 C 233.796875 179.550781 235.027344 180.746094 235.027344 183.132812 L 235.027344 188.328125 C 235.027344 189.144531 235.339844 189.554688 235.964844 189.554688 C 236.285156 189.554688 236.550781 189.496094 236.757812 189.386719 L 236.78125 190.347656 C 236.429688 190.570312 236.011719 190.683594 235.53125 190.683594 C 234.316406 190.683594 233.707031 189.960938 233.707031 188.519531 L 233.707031 188.472656 C 233.371094 189.046875 232.882812 189.5625 232.242188 190.011719 C 231.617188 190.457031 230.878906 190.683594 230.03125 190.683594 C 229.328125 190.683594 228.605469 190.476562 227.871094 190.058594 C 227.148438 189.625 226.789062 188.839844 226.789062 187.703125 C 226.789062 186.355469 227.324219 185.472656 228.398438 185.058594 C 229.472656 184.625 230.601562 184.410156 231.785156 184.410156 C 232.121094 184.410156 232.449219 184.425781 232.769531 184.457031 C 233.105469 184.472656 233.417969 184.488281 233.707031 184.503906 L 233.707031 183.375 C 233.707031 182.558594 233.515625 181.914062 233.128906 181.449219 C 232.761719 180.96875 232.089844 180.730469 231.113281 180.730469 C 230.3125 180.730469 229.589844 180.890625 228.949219 181.210938 L 228.519531 183.132812 Z M 233.707031 186.523438 L 233.707031 185.539062 C 233.402344 185.507812 233.074219 185.480469 232.722656 185.464844 C 232.371094 185.433594 232 185.417969 231.617188 185.417969 C 230.753906 185.417969 229.960938 185.554688 229.238281 185.828125 C 228.535156 186.082031 228.183594 186.660156 228.183594 187.558594 C 228.183594 188.328125 228.429688 188.847656 228.925781 189.121094 C 229.421875 189.375 229.902344 189.503906 230.367188 189.503906 C 231.167969 189.503906 231.914062 189.234375 232.601562 188.6875 C 233.289062 188.125 233.660156 187.40625 233.707031 186.523438 Z M 243.84375 179.574219 C 244.597656 179.574219 245.179688 179.761719 245.597656 180.128906 L 245.980469 182.507812 L 244.875 182.652344 L 244.46875 180.824219 C 244.226562 180.761719 243.957031 180.730469 243.652344 180.730469 C 242.945312 180.730469 242.371094 181.027344 241.921875 181.621094 C 241.472656 182.210938 241.25 182.964844 241.25 183.878906 L 241.25 189.335938 L 243.867188 189.335938 L 243.867188 190.441406 L 237.933594 190.441406 L 237.933594 189.335938 L 239.929688 189.335938 L 239.929688 180.898438 L 237.910156 180.898438 L 237.910156 179.769531 L 241.175781 179.769531 L 241.175781 181.667969 C 241.386719 181.074219 241.738281 180.578125 242.234375 180.175781 C 242.730469 179.777344 243.265625 179.574219 243.84375 179.574219 Z M 256.503906 187.414062 C 256.503906 188.40625 256.078125 189.199219 255.230469 189.792969 C 254.398438 190.386719 253.363281 190.683594 252.132812 190.683594 C 251.378906 190.683594 250.632812 190.578125 249.898438 190.371094 C 249.175781 190.144531 248.625 189.898438 248.238281 189.625 L 248.527344 187.367188 L 249.609375 187.460938 L 249.511719 188.902344 C 250.265625 189.304688 251.121094 189.503906 252.082031 189.503906 C 252.867188 189.503906 253.574219 189.351562 254.195312 189.046875 C 254.835938 188.726562 255.15625 188.230469 255.15625 187.558594 C 255.15625 186.917969 254.925781 186.460938 254.460938 186.1875 C 254.011719 185.914062 253.453125 185.722656 252.78125 185.609375 C 252.105469 185.480469 251.433594 185.347656 250.761719 185.203125 C 250.105469 185.058594 249.546875 184.792969 249.082031 184.410156 C 248.632812 184.023438 248.40625 183.421875 248.40625 182.605469 C 248.40625 181.515625 248.800781 180.738281 249.585938 180.273438 C 250.371094 179.792969 251.226562 179.550781 252.15625 179.550781 C 252.890625 179.550781 253.582031 179.65625 254.222656 179.863281 C 254.878906 180.074219 255.40625 180.296875 255.804688 180.539062 L 256.046875 182.988281 L 254.941406 183.132812 L 254.652344 181.332031 C 254.316406 181.15625 253.964844 181.011719 253.597656 180.898438 C 253.226562 180.785156 252.804688 180.730469 252.324219 180.730469 C 251.570312 180.730469 250.960938 180.867188 250.496094 181.136719 C 250.035156 181.410156 249.800781 181.851562 249.800781 182.460938 C 249.800781 183.070312 250.027344 183.503906 250.472656 183.757812 C 250.921875 184 251.484375 184.175781 252.15625 184.289062 C 252.828125 184.398438 253.492188 184.535156 254.148438 184.695312 C 254.820312 184.855469 255.382812 185.136719 255.832031 185.539062 C 256.277344 185.9375 256.503906 186.5625 256.503906 187.414062 Z M 256.503906 187.414062 " fill-opacity="1" fill-rule="nonzero"/><path fill="#ffffff" d="M 170.988281 199.589844 L 169.886719 201.609375 C 169.804688 201.527344 169.648438 201.410156 169.421875 201.269531 C 169.203125 201.125 168.933594 200.984375 168.609375 200.851562 C 168.296875 200.707031 167.953125 200.589844 167.582031 200.492188 C 167.210938 200.394531 166.832031 200.347656 166.449219 200.347656 C 165.761719 200.347656 165.253906 200.472656 164.917969 200.726562 C 164.578125 200.980469 164.410156 201.332031 164.410156 201.789062 C 164.410156 202.054688 164.472656 202.277344 164.59375 202.457031 C 164.722656 202.625 164.910156 202.777344 165.152344 202.910156 C 165.390625 203.039062 165.691406 203.160156 166.050781 203.269531 C 166.421875 203.378906 166.851562 203.492188 167.332031 203.613281 C 167.953125 203.78125 168.519531 203.960938 169.023438 204.152344 C 169.539062 204.34375 169.972656 204.585938 170.320312 204.875 C 170.679688 205.164062 170.957031 205.511719 171.148438 205.917969 C 171.34375 206.316406 171.4375 206.808594 171.4375 207.398438 C 171.4375 208.082031 171.304688 208.671875 171.042969 209.164062 C 170.789062 209.644531 170.441406 210.035156 169.996094 210.335938 C 169.5625 210.636719 169.058594 210.859375 168.484375 211.003906 C 167.917969 211.136719 167.324219 211.203125 166.699219 211.203125 C 165.738281 211.203125 164.789062 211.058594 163.851562 210.769531 C 162.917969 210.480469 162.074219 210.074219 161.332031 209.542969 L 162.429688 207.398438 C 162.539062 207.507812 162.730469 207.652344 163.007812 207.832031 C 163.292969 208 163.632812 208.171875 164.015625 208.355469 C 164.398438 208.523438 164.824219 208.667969 165.292969 208.785156 C 165.761719 208.90625 166.242188 208.96875 166.734375 208.96875 C 168.105469 208.96875 168.789062 208.527344 168.789062 207.652344 C 168.789062 207.375 168.710938 207.140625 168.554688 206.949219 C 168.398438 206.753906 168.175781 206.585938 167.890625 206.441406 C 167.601562 206.296875 167.253906 206.167969 166.84375 206.046875 C 166.4375 205.925781 165.980469 205.792969 165.476562 205.648438 C 164.863281 205.480469 164.328125 205.300781 163.871094 205.109375 C 163.425781 204.902344 163.054688 204.667969 162.753906 204.40625 C 162.453125 204.128906 162.226562 203.816406 162.070312 203.46875 C 161.925781 203.105469 161.855469 202.679688 161.855469 202.1875 C 161.855469 201.539062 161.972656 200.960938 162.214844 200.457031 C 162.453125 199.953125 162.785156 199.53125 163.203125 199.195312 C 163.636719 198.855469 164.136719 198.605469 164.699219 198.4375 C 165.265625 198.257812 165.871094 198.167969 166.519531 198.167969 C 167.421875 198.167969 168.25 198.308594 169.003906 198.597656 C 169.761719 198.875 170.421875 199.207031 170.988281 199.589844 Z M 177.457031 211.238281 C 176.699219 211.238281 176.015625 211.113281 175.402344 210.859375 C 174.789062 210.597656 174.265625 210.242188 173.835938 209.796875 C 173.402344 209.351562 173.066406 208.835938 172.824219 208.246094 C 172.597656 207.65625 172.484375 207.039062 172.484375 206.386719 C 172.484375 205.714844 172.597656 205.085938 172.824219 204.496094 C 173.054688 203.894531 173.382812 203.371094 173.816406 202.925781 C 174.25 202.46875 174.769531 202.109375 175.382812 201.84375 C 176.007812 201.582031 176.703125 201.449219 177.472656 201.449219 C 178.242188 201.449219 178.925781 201.582031 179.527344 201.84375 C 180.140625 202.109375 180.65625 202.464844 181.078125 202.910156 C 181.507812 203.351562 181.832031 203.871094 182.050781 204.460938 C 182.277344 205.046875 182.390625 205.660156 182.390625 206.296875 C 182.390625 206.453125 182.386719 206.605469 182.375 206.75 C 182.375 206.894531 182.363281 207.011719 182.335938 207.109375 L 175.042969 207.109375 C 175.078125 207.480469 175.167969 207.8125 175.3125 208.101562 C 175.457031 208.390625 175.640625 208.636719 175.871094 208.839844 C 176.097656 209.046875 176.355469 209.203125 176.644531 209.308594 C 176.933594 209.417969 177.234375 209.472656 177.546875 209.472656 C 178.027344 209.472656 178.476562 209.359375 178.898438 209.128906 C 179.328125 208.890625 179.625 208.578125 179.78125 208.191406 L 181.851562 208.769531 C 181.503906 209.488281 180.945312 210.085938 180.175781 210.554688 C 179.417969 211.011719 178.511719 211.238281 177.457031 211.238281 Z M 175.003906 205.542969 L 179.90625 205.542969 C 179.84375 204.832031 179.582031 204.265625 179.113281 203.847656 C 178.65625 203.414062 178.097656 203.195312 177.4375 203.195312 C 177.113281 203.195312 176.808594 203.257812 176.519531 203.378906 C 176.242188 203.484375 175.996094 203.640625 175.78125 203.847656 C 175.5625 204.050781 175.382812 204.296875 175.238281 204.585938 C 175.105469 204.875 175.027344 205.191406 175.003906 205.542969 Z M 189.488281 201.503906 L 189.488281 203.703125 C 188.757812 203.714844 188.101562 203.859375 187.527344 204.132812 C 186.949219 204.398438 186.535156 204.800781 186.28125 205.34375 L 186.28125 211.058594 L 183.867188 211.058594 L 183.867188 201.609375 L 186.085938 201.609375 L 186.085938 203.628906 C 186.253906 203.304688 186.453125 203.015625 186.679688 202.765625 C 186.90625 202.5 187.152344 202.269531 187.417969 202.078125 C 187.683594 201.886719 187.945312 201.742188 188.210938 201.644531 C 188.488281 201.539062 188.75 201.484375 189.003906 201.484375 C 189.136719 201.484375 189.230469 201.484375 189.292969 201.484375 C 189.363281 201.484375 189.429688 201.488281 189.488281 201.503906 Z M 195.992188 211.058594 L 193.382812 211.058594 L 189.90625 201.609375 L 192.390625 201.609375 L 194.785156 209.09375 L 197.199219 201.609375 L 199.472656 201.609375 Z M 203.144531 211.058594 L 200.730469 211.058594 L 200.730469 201.609375 L 203.144531 201.609375 Z M 203.144531 200.292969 L 200.730469 200.292969 L 200.730469 197.894531 L 203.144531 197.894531 Z M 204.730469 206.335938 C 204.730469 205.671875 204.84375 205.046875 205.074219 204.460938 C 205.300781 203.871094 205.632812 203.351562 206.066406 202.910156 C 206.496094 202.464844 207.019531 202.109375 207.632812 201.84375 C 208.246094 201.582031 208.933594 201.449219 209.703125 201.449219 C 210.738281 201.449219 211.613281 201.671875 212.335938 202.113281 C 213.066406 202.558594 213.613281 203.144531 213.972656 203.863281 L 211.613281 204.585938 C 211.410156 204.238281 211.140625 203.972656 210.804688 203.792969 C 210.464844 203.601562 210.09375 203.503906 209.6875 203.503906 C 209.335938 203.503906 209.011719 203.574219 208.714844 203.71875 C 208.414062 203.851562 208.148438 204.042969 207.921875 204.296875 C 207.703125 204.539062 207.53125 204.832031 207.398438 205.179688 C 207.277344 205.527344 207.21875 205.914062 207.21875 206.335938 C 207.21875 206.753906 207.285156 207.140625 207.414062 207.488281 C 207.546875 207.835938 207.722656 208.136719 207.9375 208.390625 C 208.167969 208.640625 208.429688 208.839844 208.730469 208.984375 C 209.03125 209.117188 209.347656 209.183594 209.6875 209.183594 C 210.117188 209.183594 210.515625 209.074219 210.875 208.859375 C 211.246094 208.640625 211.503906 208.378906 211.648438 208.066406 L 214.007812 208.785156 C 213.683594 209.507812 213.152344 210.097656 212.40625 210.554688 C 211.660156 211.011719 210.765625 211.238281 209.722656 211.238281 C 208.953125 211.238281 208.261719 211.105469 207.648438 210.84375 C 207.039062 210.578125 206.515625 210.222656 206.082031 209.777344 C 205.648438 209.320312 205.3125 208.796875 205.074219 208.210938 C 204.84375 207.609375 204.730469 206.984375 204.730469 206.335938 Z M 217.902344 211.058594 L 215.488281 211.058594 L 215.488281 201.609375 L 217.902344 201.609375 Z M 217.902344 200.292969 L 215.488281 200.292969 L 215.488281 197.894531 L 217.902344 197.894531 Z M 224.441406 211.238281 C 223.671875 211.238281 222.980469 211.105469 222.367188 210.84375 C 221.757812 210.578125 221.234375 210.222656 220.800781 209.777344 C 220.382812 209.320312 220.058594 208.796875 219.828125 208.210938 C 219.601562 207.621094 219.488281 207 219.488281 206.351562 C 219.488281 205.691406 219.601562 205.066406 219.828125 204.476562 C 220.058594 203.886719 220.382812 203.371094 220.800781 202.925781 C 221.234375 202.46875 221.757812 202.109375 222.367188 201.84375 C 222.980469 201.582031 223.671875 201.449219 224.441406 201.449219 C 225.210938 201.449219 225.894531 201.582031 226.496094 201.84375 C 227.105469 202.109375 227.625 202.46875 228.042969 202.925781 C 228.476562 203.371094 228.808594 203.886719 229.035156 204.476562 C 229.261719 205.066406 229.378906 205.691406 229.378906 206.351562 C 229.378906 207 229.261719 207.621094 229.035156 208.210938 C 228.808594 208.796875 228.484375 209.320312 228.0625 209.777344 C 227.640625 210.222656 227.125 210.578125 226.511719 210.84375 C 225.898438 211.105469 225.210938 211.238281 224.441406 211.238281 Z M 221.972656 206.351562 C 221.972656 206.773438 222.03125 207.15625 222.152344 207.507812 C 222.285156 207.84375 222.460938 208.136719 222.675781 208.390625 C 222.902344 208.640625 223.167969 208.839844 223.46875 208.984375 C 223.769531 209.117188 224.09375 209.183594 224.441406 209.183594 C 224.789062 209.183594 225.113281 209.117188 225.414062 208.984375 C 225.714844 208.839844 225.972656 208.640625 226.1875 208.390625 C 226.417969 208.136719 226.589844 207.835938 226.710938 207.488281 C 226.84375 207.140625 226.910156 206.753906 226.910156 206.335938 C 226.910156 205.925781 226.84375 205.546875 226.710938 205.199219 C 226.589844 204.851562 226.417969 204.550781 226.1875 204.296875 C 225.972656 204.042969 225.714844 203.851562 225.414062 203.71875 C 225.113281 203.574219 224.789062 203.503906 224.441406 203.503906 C 224.09375 203.503906 223.769531 203.574219 223.46875 203.71875 C 223.167969 203.863281 222.902344 204.0625 222.675781 204.316406 C 222.460938 204.566406 222.285156 204.867188 222.152344 205.214844 C 222.03125 205.566406 221.972656 205.945312 221.972656 206.351562 Z M 240.980469 211.238281 C 240.234375 211.238281 239.585938 211.078125 239.035156 210.753906 C 238.480469 210.414062 238.050781 209.964844 237.738281 209.398438 L 237.738281 214.898438 L 235.324219 214.898438 L 235.324219 201.609375 L 237.429688 201.609375 L 237.429688 203.234375 C 237.777344 202.679688 238.230469 202.246094 238.78125 201.933594 C 239.335938 201.609375 239.96875 201.449219 240.691406 201.449219 C 241.328125 201.449219 241.917969 201.582031 242.457031 201.84375 C 242.996094 202.097656 243.460938 202.445312 243.84375 202.890625 C 244.242188 203.324219 244.546875 203.839844 244.761719 204.441406 C 244.992188 205.03125 245.105469 205.65625 245.105469 206.316406 C 245.105469 207 245.003906 207.644531 244.800781 208.246094 C 244.59375 208.847656 244.304688 209.371094 243.933594 209.816406 C 243.574219 210.257812 243.140625 210.609375 242.636719 210.859375 C 242.132812 211.113281 241.578125 211.238281 240.980469 211.238281 Z M 240.167969 209.183594 C 240.527344 209.183594 240.859375 209.105469 241.160156 208.949219 C 241.472656 208.792969 241.734375 208.582031 241.953125 208.316406 C 242.167969 208.054688 242.335938 207.746094 242.457031 207.398438 C 242.578125 207.050781 242.636719 206.6875 242.636719 206.316406 C 242.636719 205.917969 242.570312 205.554688 242.4375 205.214844 C 242.308594 204.867188 242.121094 204.566406 241.878906 204.316406 C 241.652344 204.0625 241.375 203.863281 241.050781 203.71875 C 240.738281 203.574219 240.398438 203.503906 240.023438 203.503906 C 239.796875 203.503906 239.5625 203.546875 239.320312 203.628906 C 239.082031 203.703125 238.859375 203.808594 238.65625 203.953125 C 238.453125 204.097656 238.265625 204.265625 238.097656 204.460938 C 237.941406 204.652344 237.820312 204.863281 237.738281 205.089844 L 237.738281 207.308594 C 237.953125 207.847656 238.28125 208.300781 238.726562 208.660156 C 239.171875 209.007812 239.652344 209.183594 240.167969 209.183594 Z M 249.628906 211.238281 C 248.652344 211.238281 247.914062 210.925781 247.410156 210.300781 C 246.90625 209.675781 246.65625 208.75 246.65625 207.523438 L 246.65625 201.609375 L 249.070312 201.609375 L 249.070312 207 C 249.070312 208.457031 249.589844 209.183594 250.636719 209.183594 C 251.105469 209.183594 251.554688 209.046875 251.988281 208.769531 C 252.429688 208.480469 252.792969 208.046875 253.066406 207.46875 L 253.066406 201.609375 L 255.480469 201.609375 L 255.480469 208.28125 C 255.480469 208.535156 255.523438 208.714844 255.609375 208.824219 C 255.703125 208.929688 255.855469 208.992188 256.058594 209.003906 L 256.058594 211.058594 C 255.820312 211.105469 255.613281 211.136719 255.445312 211.148438 C 255.289062 211.160156 255.144531 211.167969 255.015625 211.167969 C 254.582031 211.167969 254.226562 211.070312 253.949219 210.878906 C 253.6875 210.675781 253.53125 210.398438 253.484375 210.050781 L 253.429688 209.292969 C 253.007812 209.941406 252.46875 210.425781 251.808594 210.753906 C 251.148438 211.078125 250.417969 211.238281 249.628906 211.238281 Z M 262.257812 211.238281 C 261.5 211.238281 260.816406 211.113281 260.203125 210.859375 C 259.589844 210.597656 259.066406 210.242188 258.636719 209.796875 C 258.203125 209.351562 257.867188 208.835938 257.625 208.246094 C 257.398438 207.65625 257.285156 207.039062 257.285156 206.386719 C 257.285156 205.714844 257.398438 205.085938 257.625 204.496094 C 257.855469 203.894531 258.183594 203.371094 258.617188 202.925781 C 259.050781 202.46875 259.570312 202.109375 260.183594 201.84375 C 260.808594 201.582031 261.503906 201.449219 262.273438 201.449219 C 263.042969 201.449219 263.726562 201.582031 264.328125 201.84375 C 264.941406 202.109375 265.457031 202.464844 265.878906 202.910156 C 266.308594 203.351562 266.632812 203.871094 266.851562 204.460938 C 267.078125 205.046875 267.191406 205.660156 267.191406 206.296875 C 267.191406 206.453125 267.1875 206.605469 267.175781 206.75 C 267.175781 206.894531 267.164062 207.011719 267.136719 207.109375 L 259.84375 207.109375 C 259.878906 207.480469 259.96875 207.8125 260.113281 208.101562 C 260.257812 208.390625 260.441406 208.636719 260.671875 208.839844 C 260.898438 209.046875 261.15625 209.203125 261.445312 209.308594 C 261.734375 209.417969 262.035156 209.472656 262.347656 209.472656 C 262.828125 209.472656 263.277344 209.359375 263.699219 209.128906 C 264.128906 208.890625 264.425781 208.578125 264.582031 208.191406 L 266.652344 208.769531 C 266.304688 209.488281 265.746094 210.085938 264.976562 210.554688 C 264.21875 211.011719 263.3125 211.238281 262.257812 211.238281 Z M 259.804688 205.542969 L 264.707031 205.542969 C 264.644531 204.832031 264.382812 204.265625 263.914062 203.847656 C 263.457031 203.414062 262.898438 203.195312 262.238281 203.195312 C 261.914062 203.195312 261.609375 203.257812 261.320312 203.378906 C 261.042969 203.484375 260.796875 203.640625 260.582031 203.847656 C 260.363281 204.050781 260.183594 204.296875 260.039062 204.585938 C 259.910156 204.875 259.832031 205.191406 259.804688 205.542969 Z M 274.289062 201.503906 L 274.289062 203.703125 C 273.558594 203.714844 272.902344 203.859375 272.328125 204.132812 C 271.75 204.398438 271.335938 204.800781 271.085938 205.34375 L 271.085938 211.058594 L 268.671875 211.058594 L 268.671875 201.609375 L 270.886719 201.609375 L 270.886719 203.628906 C 271.054688 203.304688 271.253906 203.015625 271.480469 202.765625 C 271.707031 202.5 271.953125 202.269531 272.21875 202.078125 C 272.484375 201.886719 272.746094 201.742188 273.011719 201.644531 C 273.289062 201.539062 273.550781 201.484375 273.804688 201.484375 C 273.9375 201.484375 274.03125 201.484375 274.09375 201.484375 C 274.164062 201.484375 274.230469 201.488281 274.289062 201.503906 Z M 280.8125 208.660156 L 281.300781 210.570312 C 280.976562 210.714844 280.578125 210.859375 280.109375 211.003906 C 279.640625 211.148438 279.148438 211.222656 278.632812 211.222656 C 278.296875 211.222656 277.976562 211.179688 277.679688 211.09375 C 277.390625 211.011719 277.132812 210.878906 276.902344 210.699219 C 276.6875 210.503906 276.511719 210.265625 276.378906 209.976562 C 276.25 209.675781 276.183594 209.316406 276.183594 208.894531 L 276.183594 203.46875 L 274.941406 203.46875 L 274.941406 201.609375 L 276.183594 201.609375 L 276.183594 198.542969 L 278.597656 198.542969 L 278.597656 201.609375 L 280.578125 201.609375 L 280.578125 203.46875 L 278.597656 203.46875 L 278.597656 208.082031 C 278.597656 208.421875 278.679688 208.660156 278.847656 208.804688 C 279.027344 208.9375 279.246094 209.003906 279.496094 209.003906 C 279.75 209.003906 279.996094 208.960938 280.234375 208.875 C 280.476562 208.792969 280.667969 208.71875 280.8125 208.660156 Z M 285.136719 211.238281 C 284.679688 211.238281 284.253906 211.167969 283.855469 211.023438 C 283.460938 210.867188 283.117188 210.65625 282.832031 210.390625 C 282.542969 210.113281 282.3125 209.796875 282.144531 209.4375 C 281.988281 209.074219 281.910156 208.679688 281.910156 208.246094 C 281.910156 207.800781 282.007812 207.390625 282.199219 207.019531 C 282.402344 206.636719 282.679688 206.308594 283.027344 206.046875 C 283.390625 205.78125 283.816406 205.578125 284.308594 205.433594 C 284.800781 205.277344 285.339844 205.199219 285.929688 205.199219 C 286.351562 205.199219 286.757812 205.234375 287.15625 205.304688 C 287.5625 205.378906 287.921875 205.480469 288.234375 205.613281 L 288.234375 205.070312 C 288.234375 204.445312 288.054688 203.964844 287.695312 203.628906 C 287.347656 203.292969 286.824219 203.125 286.128906 203.125 C 285.621094 203.125 285.128906 203.214844 284.648438 203.394531 C 284.167969 203.574219 283.675781 203.839844 283.171875 204.1875 L 282.433594 202.65625 C 283.648438 201.851562 284.957031 201.449219 286.363281 201.449219 C 287.71875 201.449219 288.769531 201.785156 289.515625 202.457031 C 290.269531 203.117188 290.648438 204.082031 290.648438 205.34375 L 290.648438 208.28125 C 290.648438 208.535156 290.691406 208.714844 290.777344 208.824219 C 290.871094 208.929688 291.023438 208.992188 291.226562 209.003906 L 291.226562 211.058594 C 290.816406 211.144531 290.464844 211.183594 290.164062 211.183594 C 289.707031 211.183594 289.351562 211.082031 289.101562 210.878906 C 288.859375 210.675781 288.710938 210.402344 288.648438 210.066406 L 288.59375 209.542969 C 288.175781 210.097656 287.664062 210.519531 287.0625 210.804688 C 286.464844 211.09375 285.820312 211.238281 285.136719 211.238281 Z M 285.820312 209.472656 C 286.230469 209.472656 286.613281 209.398438 286.972656 209.253906 C 287.347656 209.109375 287.632812 208.917969 287.839844 208.679688 C 288.101562 208.472656 288.234375 208.246094 288.234375 207.992188 L 288.234375 206.910156 C 287.945312 206.804688 287.632812 206.71875 287.296875 206.660156 C 286.960938 206.585938 286.636719 206.550781 286.324219 206.550781 C 285.699219 206.550781 285.191406 206.695312 284.792969 206.984375 C 284.398438 207.261719 284.199219 207.613281 284.199219 208.046875 C 284.199219 208.457031 284.355469 208.796875 284.667969 209.074219 C 284.980469 209.339844 285.363281 209.472656 285.820312 209.472656 Z M 299.800781 211.238281 C 299.34375 211.238281 298.917969 211.167969 298.523438 211.023438 C 298.125 210.867188 297.785156 210.65625 297.496094 210.390625 C 297.207031 210.113281 296.980469 209.796875 296.8125 209.4375 C 296.65625 209.074219 296.578125 208.679688 296.578125 208.246094 C 296.578125 207.800781 296.671875 207.390625 296.863281 207.019531 C 297.070312 206.636719 297.34375 206.308594 297.695312 206.046875 C 298.054688 205.78125 298.480469 205.578125 298.972656 205.433594 C 299.464844 205.277344 300.003906 205.199219 300.59375 205.199219 C 301.015625 205.199219 301.421875 205.234375 301.820312 205.304688 C 302.226562 205.378906 302.589844 205.480469 302.898438 205.613281 L 302.898438 205.070312 C 302.898438 204.445312 302.71875 203.964844 302.359375 203.628906 C 302.011719 203.292969 301.488281 203.125 300.792969 203.125 C 300.289062 203.125 299.796875 203.214844 299.316406 203.394531 C 298.835938 203.574219 298.34375 203.839844 297.835938 204.1875 L 297.097656 202.65625 C 298.3125 201.851562 299.621094 201.449219 301.027344 201.449219 C 302.382812 201.449219 303.433594 201.785156 304.179688 202.457031 C 304.9375 203.117188 305.3125 204.082031 305.3125 205.34375 L 305.3125 208.28125 C 305.3125 208.535156 305.355469 208.714844 305.441406 208.824219 C 305.535156 208.929688 305.6875 208.992188 305.890625 209.003906 L 305.890625 211.058594 C 305.484375 211.144531 305.128906 211.183594 304.828125 211.183594 C 304.371094 211.183594 304.015625 211.082031 303.765625 210.878906 C 303.523438 210.675781 303.375 210.402344 303.316406 210.066406 L 303.261719 209.542969 C 302.839844 210.097656 302.328125 210.519531 301.730469 210.804688 C 301.128906 211.09375 300.484375 211.238281 299.800781 211.238281 Z M 300.484375 209.472656 C 300.894531 209.472656 301.277344 209.398438 301.640625 209.253906 C 302.011719 209.109375 302.300781 208.917969 302.503906 208.679688 C 302.769531 208.472656 302.898438 208.246094 302.898438 207.992188 L 302.898438 206.910156 C 302.613281 206.804688 302.300781 206.71875 301.964844 206.660156 C 301.628906 206.585938 301.304688 206.550781 300.992188 206.550781 C 300.367188 206.550781 299.855469 206.695312 299.460938 206.984375 C 299.0625 207.261719 298.863281 207.613281 298.863281 208.046875 C 298.863281 208.457031 299.019531 208.796875 299.332031 209.074219 C 299.644531 209.339844 300.03125 209.472656 300.484375 209.472656 Z M 317.546875 211.238281 C 316.800781 211.238281 316.152344 211.078125 315.601562 210.753906 C 315.050781 210.414062 314.617188 209.964844 314.304688 209.398438 L 314.304688 214.898438 L 311.890625 214.898438 L 311.890625 201.609375 L 314 201.609375 L 314 203.234375 C 314.347656 202.679688 314.796875 202.246094 315.347656 201.933594 C 315.902344 201.609375 316.539062 201.449219 317.257812 201.449219 C 317.894531 201.449219 318.484375 201.582031 319.023438 201.84375 C 319.566406 202.097656 320.027344 202.445312 320.410156 202.890625 C 320.808594 203.324219 321.113281 203.839844 321.332031 204.441406 C 321.558594 205.03125 321.671875 205.65625 321.671875 206.316406 C 321.671875 207 321.570312 207.644531 321.367188 208.246094 C 321.164062 208.847656 320.875 209.371094 320.5 209.816406 C 320.140625 210.257812 319.710938 210.609375 319.203125 210.859375 C 318.699219 211.113281 318.148438 211.238281 317.546875 211.238281 Z M 316.738281 209.183594 C 317.097656 209.183594 317.425781 209.105469 317.726562 208.949219 C 318.039062 208.792969 318.304688 208.582031 318.519531 208.316406 C 318.734375 208.054688 318.90625 207.746094 319.023438 207.398438 C 319.144531 207.050781 319.203125 206.6875 319.203125 206.316406 C 319.203125 205.917969 319.136719 205.554688 319.007812 205.214844 C 318.875 204.867188 318.6875 204.566406 318.449219 204.316406 C 318.21875 204.0625 317.945312 203.863281 317.621094 203.71875 C 317.308594 203.574219 316.964844 203.503906 316.59375 203.503906 C 316.363281 203.503906 316.128906 203.546875 315.890625 203.628906 C 315.648438 203.703125 315.425781 203.808594 315.222656 203.953125 C 315.019531 204.097656 314.832031 204.265625 314.664062 204.460938 C 314.507812 204.652344 314.386719 204.863281 314.304688 205.089844 L 314.304688 207.308594 C 314.519531 207.847656 314.851562 208.300781 315.296875 208.660156 C 315.738281 209.007812 316.21875 209.183594 316.738281 209.183594 Z M 326.195312 211.238281 C 325.222656 211.238281 324.484375 210.925781 323.980469 210.300781 C 323.472656 209.675781 323.222656 208.75 323.222656 207.523438 L 323.222656 201.609375 L 325.636719 201.609375 L 325.636719 207 C 325.636719 208.457031 326.160156 209.183594 327.203125 209.183594 C 327.671875 209.183594 328.121094 209.046875 328.554688 208.769531 C 329 208.480469 329.359375 208.046875 329.636719 207.46875 L 329.636719 201.609375 L 332.050781 201.609375 L 332.050781 208.28125 C 332.050781 208.535156 332.09375 208.714844 332.175781 208.824219 C 332.273438 208.929688 332.421875 208.992188 332.625 209.003906 L 332.625 211.058594 C 332.386719 211.105469 332.183594 211.136719 332.015625 211.148438 C 331.859375 211.160156 331.714844 211.167969 331.582031 211.167969 C 331.148438 211.167969 330.792969 211.070312 330.519531 210.878906 C 330.253906 210.675781 330.097656 210.398438 330.050781 210.050781 L 329.996094 209.292969 C 329.574219 209.941406 329.035156 210.425781 328.375 210.753906 C 327.714844 211.078125 326.988281 211.238281 326.195312 211.238281 Z M 338.824219 211.238281 C 338.066406 211.238281 337.382812 211.113281 336.769531 210.859375 C 336.15625 210.597656 335.636719 210.242188 335.203125 209.796875 C 334.769531 209.351562 334.433594 208.835938 334.195312 208.246094 C 333.964844 207.65625 333.851562 207.039062 333.851562 206.386719 C 333.851562 205.714844 333.964844 205.085938 334.195312 204.496094 C 334.421875 203.894531 334.753906 203.371094 335.183594 202.925781 C 335.617188 202.46875 336.140625 202.109375 336.753906 201.84375 C 337.375 201.582031 338.074219 201.449219 338.84375 201.449219 C 339.609375 201.449219 340.296875 201.582031 340.894531 201.84375 C 341.507812 202.109375 342.023438 202.464844 342.445312 202.910156 C 342.878906 203.351562 343.203125 203.871094 343.417969 204.460938 C 343.644531 205.046875 343.761719 205.660156 343.761719 206.296875 C 343.761719 206.453125 343.753906 206.605469 343.742188 206.75 C 343.742188 206.894531 343.730469 207.011719 343.707031 207.109375 L 336.410156 207.109375 C 336.445312 207.480469 336.535156 207.8125 336.679688 208.101562 C 336.824219 208.390625 337.011719 208.636719 337.238281 208.839844 C 337.46875 209.046875 337.726562 209.203125 338.011719 209.308594 C 338.300781 209.417969 338.601562 209.472656 338.914062 209.472656 C 339.394531 209.472656 339.84375 209.359375 340.265625 209.128906 C 340.699219 208.890625 340.992188 208.578125 341.148438 208.191406 L 343.21875 208.769531 C 342.871094 209.488281 342.3125 210.085938 341.542969 210.554688 C 340.789062 211.011719 339.882812 211.238281 338.824219 211.238281 Z M 336.375 205.542969 L 341.273438 205.542969 C 341.214844 204.832031 340.949219 204.265625 340.480469 203.847656 C 340.023438 203.414062 339.464844 203.195312 338.804688 203.195312 C 338.480469 203.195312 338.175781 203.257812 337.886719 203.378906 C 337.609375 203.484375 337.363281 203.640625 337.148438 203.847656 C 336.933594 204.050781 336.753906 204.296875 336.609375 204.585938 C 336.476562 204.875 336.398438 205.191406 336.375 205.542969 Z M 350.859375 201.503906 L 350.859375 203.703125 C 350.125 203.714844 349.472656 203.859375 348.894531 204.132812 C 348.320312 204.398438 347.902344 204.800781 347.652344 205.34375 L 347.652344 211.058594 L 345.238281 211.058594 L 345.238281 201.609375 L 347.453125 201.609375 L 347.453125 203.628906 C 347.621094 203.304688 347.820312 203.015625 348.046875 202.765625 C 348.277344 202.5 348.523438 202.269531 348.785156 202.078125 C 349.050781 201.886719 349.316406 201.742188 349.578125 201.644531 C 349.855469 201.539062 350.121094 201.484375 350.371094 201.484375 C 350.503906 201.484375 350.601562 201.484375 350.660156 201.484375 C 350.734375 201.484375 350.796875 201.488281 350.859375 201.503906 Z M 357.378906 208.660156 L 357.867188 210.570312 C 357.542969 210.714844 357.144531 210.859375 356.679688 211.003906 C 356.210938 211.148438 355.71875 211.222656 355.199219 211.222656 C 354.863281 211.222656 354.546875 211.179688 354.246094 211.09375 C 353.957031 211.011719 353.699219 210.878906 353.472656 210.699219 C 353.253906 210.503906 353.082031 210.265625 352.949219 209.976562 C 352.816406 209.675781 352.75 209.316406 352.75 208.894531 L 352.75 203.46875 L 351.507812 203.46875 L 351.507812 201.609375 L 352.75 201.609375 L 352.75 198.542969 L 355.164062 198.542969 L 355.164062 201.609375 L 357.144531 201.609375 L 357.144531 203.46875 L 355.164062 203.46875 L 355.164062 208.082031 C 355.164062 208.421875 355.25 208.660156 355.417969 208.804688 C 355.597656 208.9375 355.8125 209.003906 356.066406 209.003906 C 356.316406 209.003906 356.5625 208.960938 356.804688 208.875 C 357.042969 208.792969 357.234375 208.71875 357.378906 208.660156 Z M 361.703125 211.238281 C 361.246094 211.238281 360.820312 211.167969 360.425781 211.023438 C 360.027344 210.867188 359.6875 210.65625 359.398438 210.390625 C 359.109375 210.113281 358.882812 209.796875 358.714844 209.4375 C 358.558594 209.074219 358.480469 208.679688 358.480469 208.246094 C 358.480469 207.800781 358.574219 207.390625 358.769531 207.019531 C 358.972656 206.636719 359.25 206.308594 359.597656 206.046875 C 359.957031 205.78125 360.382812 205.578125 360.875 205.433594 C 361.367188 205.277344 361.910156 205.199219 362.496094 205.199219 C 362.917969 205.199219 363.324219 205.234375 363.722656 205.304688 C 364.128906 205.378906 364.492188 205.480469 364.804688 205.613281 L 364.804688 205.070312 C 364.804688 204.445312 364.621094 203.964844 364.261719 203.628906 C 363.914062 203.292969 363.390625 203.125 362.695312 203.125 C 362.191406 203.125 361.699219 203.214844 361.21875 203.394531 C 360.738281 203.574219 360.246094 203.839844 359.742188 204.1875 L 359 202.65625 C 360.214844 201.851562 361.523438 201.449219 362.929688 201.449219 C 364.285156 201.449219 365.335938 201.785156 366.082031 202.457031 C 366.839844 203.117188 367.21875 204.082031 367.21875 205.34375 L 367.21875 208.28125 C 367.21875 208.535156 367.257812 208.714844 367.34375 208.824219 C 367.4375 208.929688 367.589844 208.992188 367.792969 209.003906 L 367.792969 211.058594 C 367.386719 211.144531 367.03125 211.183594 366.730469 211.183594 C 366.273438 211.183594 365.921875 211.082031 365.667969 210.878906 C 365.425781 210.675781 365.277344 210.402344 365.21875 210.066406 L 365.164062 209.542969 C 364.742188 210.097656 364.234375 210.519531 363.632812 210.804688 C 363.03125 211.09375 362.390625 211.238281 361.703125 211.238281 Z M 362.390625 209.472656 C 362.796875 209.472656 363.179688 209.398438 363.542969 209.253906 C 363.914062 209.109375 364.203125 208.917969 364.40625 208.679688 C 364.671875 208.472656 364.804688 208.246094 364.804688 207.992188 L 364.804688 206.910156 C 364.515625 206.804688 364.203125 206.71875 363.867188 206.660156 C 363.53125 206.585938 363.207031 206.550781 362.894531 206.550781 C 362.269531 206.550781 361.757812 206.695312 361.363281 206.984375 C 360.964844 207.261719 360.765625 207.613281 360.765625 208.046875 C 360.765625 208.457031 360.921875 208.796875 361.234375 209.074219 C 361.546875 209.339844 361.933594 209.472656 362.390625 209.472656 Z M 362.390625 209.472656 " fill-opacity="1" fill-rule="nonzero"/></svg>