<svg version="1.1" xmlns="http://www.w3.org/2000/svg" viewBox="-6833.340160492439 -983.0400268554688 15985.852191284675 2331.90403137207"><desc>Created with Snap</desc><defs></defs><g><g transform="matrix(62.8701,0,0,62.8701,-6528.6147,-2866.7823)"><path fill="#FFFFFF" d="M76.704,58.098c-0.113-0.095-0.25-0.111-0.322-0.033c-0.079,0.088-0.049,0.267,0.062,0.396  c1.207,1.438,2.871,2.327,4.707,2.333c1.834-0.006,3.498-0.896,4.703-2.333c0.111-0.131,0.143-0.309,0.062-0.396  c-0.07-0.078-0.208-0.062-0.323,0.033c-1.212,1.105-2.758,1.768-4.446,1.771C79.462,59.864,77.917,59.203,76.704,58.098z   M72.502,53.5c0-4.786,3.88-8.667,8.667-8.667c4.788,0,8.67,3.881,8.67,8.667c0,4.787-3.882,8.667-8.67,8.667  C76.382,62.167,72.502,58.287,72.502,53.5z M69.303,53.375c-0.881-0.014-1.771-0.02-2.668-0.02c-6.992,0-13.527,0.406-19.084,1.113  c6.077-0.246,13.713-0.291,21.76,0.319c-0.02-0.252-0.025-0.502-0.025-0.761C69.284,53.811,69.289,53.592,69.303,53.375z   M68.242,37.326c0.359-0.481-0.487-0.588-0.487-0.588c-1.254-0.161-2.497-0.3-3.72-0.424c-8.432-0.83-16.062-0.706-21.188,1.293  c-3.291,1.281-6.469,2.618-11.126,4.48c7.314,0,28.246,0.049,28.246,0.049c2.924,0,4.543-1.248,5.176-1.83  C65.143,40.307,68.078,37.544,68.242,37.326z M97.807,42.751c-8.058-1.89-17.771-4.083-27.104-5.482  c-0.902,0.869-1.878,1.812-2.882,2.775C80.699,40.396,92.779,42.004,97.807,42.751z M93.477,52.986  c-2.195,2.32,0.609,3.658-0.283,3.814h-2.916c0.373-1.029,0.576-2.143,0.576-3.302c0-5.35-4.334-9.684-9.685-9.684  c-5.349,0-9.685,4.334-9.685,9.684c0,1.454,0.32,2.831,0.895,4.067c-19.645-1.926-37.702,0.369-37.702,0.369L26.46,59.63  c1.367-1.67,2.187-3.804,2.187-6.13c0-5.35-4.335-9.684-9.683-9.684c-5.349,0-9.685,4.334-9.685,9.684  c0,2.134,0.691,4.109,1.863,5.71c-4.879-0.261-8.849-0.553-10.919-1.795c-1.231-0.722,4.255-0.708,0.882-8.472  c3.663-0.301,7.284-0.763,7.284-1.401v-0.08H0.4c6.175-4.295,13.646-5.859,22.963-5.859c3.699-0.147,6.614-0.761,9.255-1.573  c3.679-1.399,7.489-2.793,9.773-3.588c13.003-4.529,39.9,1.622,57.266,5.716l-0.142,0.603  C99.339,43.635,97.977,48.867,93.477,52.986z M14.498,58.1c-0.113-0.097-0.251-0.113-0.322-0.033  c-0.079,0.086-0.048,0.265,0.062,0.396c1.207,1.436,2.871,2.325,4.708,2.331c1.831-0.006,3.495-0.896,4.702-2.331  c0.111-0.133,0.143-0.311,0.062-0.396c-0.072-0.08-0.209-0.062-0.322,0.033c-1.213,1.104-2.758,1.766-4.447,1.769  C17.256,59.864,15.712,59.203,14.498,58.1z M10.296,53.5c0-4.786,3.881-8.667,8.668-8.667s8.668,3.881,8.668,8.667  c0,4.787-3.881,8.667-8.668,8.667S10.296,58.287,10.296,53.5z" style=""></path><desc>Created with Snap</desc><defs></defs></g><g><g transform="matrix(1.024,0,0,-1.024,0,0)"><path d="M541 183L522 0L43 0L43 51L128 51L128 599L43 599L43 650L512 650L532 468L481 462L461 599L185 599L185 356L500 356L500 305L185 305L185 51L471 51L491 188L541 183ZM961 156L1008 145Q998 87 955 38Q913 -10 826 -10Q735 -10 682 50Q629 110 629 215Q629 272 650 327Q671 382 715 417Q760 453 830 453Q921 453 979 405L995 306L949 300L932 375Q891 404 830 404Q751 404 719 347Q688 291 688 219Q688 134 725 86Q762 39 832 39Q938 39 961 156ZM1585 46L1585 0L1447 0L1447 88Q1426 44 1385 17Q1344 -10 1290 -10Q1224 -10 1180 31Q1136 72 1136 163L1136 397L1054 397L1054 444L1191 444L1191 176Q1191 100 1223 69Q1256 39 1306 39Q1366 39 1405 86Q1445 133 1447 181L1447 397L1349 397L1349 444L1502 444L1502 46L1585 46ZM1670 310L1686 409Q1714 432 1753 442Q1793 453 1833 453Q1987 453 1987 304L1987 88Q1987 37 2026 37Q2046 37 2059 44L2060 4Q2038 -10 2008 -10Q1932 -10 1932 80L1932 82Q1911 46 1871 18Q1832 -10 1779 -10Q1735 -10 1689 16Q1644 43 1644 114Q1644 198 1711 224Q1778 251 1852 251Q1873 251 1893 249Q1914 248 1932 247L1932 294Q1932 345 1908 374Q1885 404 1824 404Q1774 404 1734 384L1716 304L1670 310ZM1932 163L1932 204Q1913 206 1891 207Q1869 209 1845 209Q1791 209 1746 192Q1702 176 1702 120Q1702 72 1733 55Q1764 39 1793 39Q1843 39 1886 73Q1929 108 1932 163ZM2666 162L2648 45Q2572 -10 2438 -10Q2296 -10 2209 86Q2122 182 2122 323Q2122 416 2161 492Q2201 569 2269 614Q2338 660 2425 660Q2505 660 2558 639Q2612 619 2654 584L2672 467L2622 461L2602 559Q2569 581 2532 594Q2495 608 2434 608Q2322 608 2252 527Q2182 446 2182 324Q2182 201 2253 121Q2324 42 2448 42Q2493 42 2527 48Q2562 55 2596 72L2616 168L2666 162ZM2794 310L2810 409Q2838 432 2877 442Q2917 453 2957 453Q3111 453 3111 304L3111 88Q3111 37 3150 37Q3170 37 3183 44L3184 4Q3162 -10 3132 -10Q3056 -10 3056 80L3056 82Q3035 46 2995 18Q2956 -10 2903 -10Q2859 -10 2813 16Q2768 43 2768 114Q2768 198 2835 224Q2902 251 2976 251Q2997 251 3017 249Q3038 248 3056 247L3056 294Q3056 345 3032 374Q3009 404 2948 404Q2898 404 2858 384L2840 304L2794 310ZM3056 163L3056 204Q3037 206 3015 207Q2993 209 2969 209Q2915 209 2870 192Q2826 176 2826 120Q2826 72 2857 55Q2888 39 2917 39Q2967 39 3010 73Q3053 108 3056 163ZM3478 452Q3525 452 3551 429L3567 330L3521 324L3504 400Q3489 404 3470 404Q3426 404 3398 367Q3370 330 3370 273L3370 46L3479 46L3479 0L3232 0L3232 46L3315 46L3315 397L3231 397L3231 444L3367 444L3367 365Q3380 402 3411 427Q3442 452 3478 452ZM4005 126Q4005 64 3952 27Q3900 -10 3823 -10Q3776 -10 3730 3Q3685 17 3661 34L3673 128L3718 124L3714 64Q3761 39 3821 39Q3870 39 3909 58Q3949 78 3949 120Q3949 160 3920 177Q3892 194 3850 201Q3808 209 3766 218Q3725 227 3696 251Q3668 275 3668 326Q3668 394 3717 423Q3766 453 3824 453Q3870 453 3910 440Q3951 427 3976 412L3986 310L3940 304L3928 379Q3907 390 3884 397Q3861 404 3831 404Q3784 404 3755 387Q3726 370 3726 332Q3726 294 3754 278Q3782 263 3824 256Q3866 249 3907 239Q3949 229 3977 204Q4005 179 4005 126Z" fill="#FFFFFF" style=""></path></g></g><g transform="matrix(0.75,0,0,0.75,27.136,878.08)"><g transform="matrix(1.024,0,0,-1.024,0,0)"><path d="M558 636L497 524Q490 531 471 543Q453 555 426 566Q400 578 369 586Q338 594 306 594Q249 594 221 573Q193 552 193 514Q193 492 203 477Q214 463 234 452Q254 441 284 432Q315 423 355 413Q407 399 449 383Q492 367 521 343Q551 319 567 285Q583 252 583 203Q583 146 561 105Q540 65 503 40Q467 15 419 3Q372 -8 320 -8Q240 -8 162 16Q84 40 22 84L83 203Q92 194 115 179Q139 165 171 150Q203 136 242 126Q281 116 322 116Q436 116 436 189Q436 212 423 228Q410 244 386 256Q362 268 328 278Q294 288 252 300Q201 314 163 330Q126 347 101 369Q76 392 63 421Q51 451 51 492Q51 546 71 588Q91 630 126 658Q162 686 209 700Q256 715 310 715Q385 715 448 691Q511 668 558 636ZM917 -10Q854 -10 803 11Q752 33 716 70Q680 107 660 156Q641 205 641 259Q641 315 660 364Q679 414 715 451Q751 489 802 511Q854 533 918 533Q982 533 1032 511Q1083 489 1118 452Q1154 415 1172 366Q1191 317 1191 264Q1191 251 1190 239Q1190 227 1188 219L783 219Q786 188 798 164Q810 140 829 123Q848 106 872 97Q896 88 922 88Q962 88 997 107Q1033 127 1046 159L1161 127Q1132 67 1068 28Q1005 -10 917 -10ZM781 306L1053 306Q1048 365 1009 400Q971 436 916 436Q889 436 865 426Q842 417 824 400Q806 383 794 359Q783 335 781 306ZM1585 530L1585 408Q1524 407 1476 384Q1428 362 1407 317L1407 0L1273 0L1273 524L1396 524L1396 412Q1410 439 1429 460Q1448 482 1470 498Q1492 514 1514 522Q1537 531 1558 531Q1569 531 1574 531Q1580 531 1585 530ZM1946 0L1801 0L1608 524L1746 524L1879 109L2013 524L2139 524L1946 0ZM2343 0L2209 0L2209 524L2343 524L2343 0ZM2343 597L2209 597L2209 730L2343 730L2343 597ZM2431 262Q2431 317 2450 366Q2469 415 2505 452Q2541 489 2592 511Q2643 533 2707 533Q2793 533 2853 496Q2914 459 2944 399L2813 359Q2796 388 2768 403Q2740 419 2706 419Q2677 419 2652 407Q2627 396 2608 375Q2590 355 2579 326Q2569 297 2569 262Q2569 227 2580 198Q2591 169 2609 148Q2628 127 2653 115Q2678 104 2706 104Q2742 104 2772 122Q2803 140 2815 166L2946 126Q2919 66 2857 28Q2795 -10 2708 -10Q2644 -10 2593 12Q2542 34 2506 71Q2470 109 2450 158Q2431 208 2431 262ZM3162 0L3028 0L3028 524L3162 524L3162 0ZM3162 597L3028 597L3028 730L3162 730L3162 597ZM3525 -10Q3461 -10 3410 12Q3359 34 3323 71Q3288 109 3269 158Q3250 207 3250 261Q3250 316 3269 365Q3288 414 3323 451Q3359 489 3410 511Q3461 533 3525 533Q3589 533 3639 511Q3690 489 3725 451Q3761 414 3780 365Q3799 316 3799 261Q3799 207 3780 158Q3761 109 3726 71Q3691 34 3640 12Q3589 -10 3525 -10ZM3388 261Q3388 226 3398 197Q3409 169 3427 148Q3446 127 3471 115Q3496 104 3525 104Q3554 104 3579 115Q3604 127 3622 148Q3641 169 3651 198Q3662 227 3662 262Q3662 296 3651 325Q3641 354 3622 375Q3604 396 3579 407Q3554 419 3525 419Q3496 419 3471 407Q3446 395 3427 374Q3409 353 3398 324Q3388 295 3388 261ZM4443 -10Q4381 -10 4335 17Q4289 45 4263 92L4263 -213L4129 -213L4129 524L4246 524L4246 434Q4275 480 4321 506Q4367 533 4427 533Q4480 533 4525 511Q4570 490 4602 453Q4635 417 4653 367Q4672 318 4672 263Q4672 206 4655 156Q4638 106 4607 69Q4577 32 4535 11Q4493 -10 4443 -10ZM4398 104Q4428 104 4453 117Q4479 130 4497 152Q4515 174 4525 203Q4535 232 4535 263Q4535 296 4524 324Q4513 353 4493 374Q4474 395 4447 407Q4421 419 4390 419Q4371 419 4351 412Q4331 406 4314 394Q4297 382 4283 366Q4270 350 4263 331L4263 208Q4281 163 4318 133Q4355 104 4398 104ZM4923 -10Q4842 -10 4800 42Q4758 94 4758 196L4758 524L4892 524L4892 225Q4892 104 4979 104Q5018 104 5054 127Q5091 151 5114 199L5114 524L5248 524L5248 154Q5248 133 5255 124Q5263 115 5280 114L5280 0Q5260 -4 5246 -5Q5233 -6 5222 -6Q5186 -6 5163 10Q5141 27 5137 56L5134 98Q5099 44 5044 17Q4989 -10 4923 -10ZM5624 -10Q5561 -10 5510 11Q5459 33 5423 70Q5387 107 5367 156Q5348 205 5348 259Q5348 315 5367 364Q5386 414 5422 451Q5458 489 5509 511Q5561 533 5625 533Q5689 533 5739 511Q5790 489 5825 452Q5861 415 5879 366Q5898 317 5898 264Q5898 251 5897 239Q5897 227 5895 219L5490 219Q5493 188 5505 164Q5517 140 5536 123Q5555 106 5579 97Q5603 88 5629 88Q5669 88 5704 107Q5740 127 5753 159L5868 127Q5839 67 5775 28Q5712 -10 5624 -10ZM5488 306L5760 306Q5755 365 5716 400Q5678 436 5623 436Q5596 436 5572 426Q5549 417 5531 400Q5513 383 5501 359Q5490 335 5488 306ZM6292 530L6292 408Q6231 407 6183 384Q6135 362 6114 317L6114 0L5980 0L5980 524L6103 524L6103 412Q6117 439 6136 460Q6155 482 6177 498Q6199 514 6221 522Q6244 531 6265 531Q6276 531 6281 531Q6287 531 6292 530ZM6654 133L6681 27Q6654 15 6615 3Q6576 -9 6533 -9Q6505 -9 6480 -2Q6456 5 6437 20Q6419 36 6408 60Q6397 85 6397 120L6397 421L6328 421L6328 524L6397 524L6397 694L6531 694L6531 524L6641 524L6641 421L6531 421L6531 165Q6531 137 6545 125Q6560 114 6581 114Q6602 114 6622 121Q6642 128 6654 133ZM6894 -10Q6856 -10 6823 2Q6790 15 6766 37Q6742 60 6728 90Q6715 120 6715 156Q6715 193 6731 224Q6748 256 6777 278Q6807 300 6848 312Q6889 325 6938 325Q6973 325 7006 319Q7040 313 7066 302L7066 332Q7066 384 7036 412Q7007 440 6949 440Q6907 440 6867 425Q6827 410 6785 381L6744 466Q6845 533 6962 533Q7075 533 7137 477Q7200 422 7200 317L7200 154Q7200 133 7207 124Q7215 115 7232 114L7232 0Q7198 -7 7173 -7Q7135 -7 7114 10Q7094 27 7089 55L7086 84Q7051 38 7001 14Q6951 -10 6894 -10ZM6932 88Q6966 88 6996 100Q7027 112 7044 132Q7066 149 7066 170L7066 230Q7042 239 7014 244Q6986 250 6960 250Q6908 250 6875 226Q6842 203 6842 167Q6842 133 6868 110Q6894 88 6932 88ZM7708 -10Q7670 -10 7637 2Q7604 15 7580 37Q7556 60 7542 90Q7529 120 7529 156Q7529 193 7545 224Q7562 256 7591 278Q7621 300 7662 312Q7703 325 7752 325Q7787 325 7820 319Q7854 313 7880 302L7880 332Q7880 384 7850 412Q7821 440 7763 440Q7721 440 7681 425Q7641 410 7599 381L7558 466Q7659 533 7776 533Q7889 533 7951 477Q8014 422 8014 317L8014 154Q8014 133 8021 124Q8029 115 8046 114L8046 0Q8012 -7 7987 -7Q7949 -7 7928 10Q7908 27 7903 55L7900 84Q7865 38 7815 14Q7765 -10 7708 -10ZM7746 88Q7780 88 7810 100Q7841 112 7858 132Q7880 149 7880 170L7880 230Q7856 239 7828 244Q7800 250 7774 250Q7722 250 7689 226Q7656 203 7656 167Q7656 133 7682 110Q7708 88 7746 88ZM8693 -10Q8631 -10 8585 17Q8539 45 8513 92L8513 -213L8379 -213L8379 524L8496 524L8496 434Q8525 480 8571 506Q8617 533 8677 533Q8730 533 8775 511Q8820 490 8852 453Q8885 417 8903 367Q8922 318 8922 263Q8922 206 8905 156Q8888 106 8857 69Q8827 32 8785 11Q8743 -10 8693 -10ZM8648 104Q8678 104 8703 117Q8729 130 8747 152Q8765 174 8775 203Q8785 232 8785 263Q8785 296 8774 324Q8763 353 8743 374Q8724 395 8697 407Q8671 419 8640 419Q8621 419 8601 412Q8581 406 8564 394Q8547 382 8533 366Q8520 350 8513 331L8513 208Q8531 163 8568 133Q8605 104 8648 104ZM9173 -10Q9092 -10 9050 42Q9008 94 9008 196L9008 524L9142 524L9142 225Q9142 104 9229 104Q9268 104 9304 127Q9341 151 9364 199L9364 524L9498 524L9498 154Q9498 133 9505 124Q9513 115 9530 114L9530 0Q9510 -4 9496 -5Q9483 -6 9472 -6Q9436 -6 9413 10Q9391 27 9387 56L9384 98Q9349 44 9294 17Q9239 -10 9173 -10ZM9874 -10Q9811 -10 9760 11Q9709 33 9673 70Q9637 107 9617 156Q9598 205 9598 259Q9598 315 9617 364Q9636 414 9672 451Q9708 489 9759 511Q9811 533 9875 533Q9939 533 9989 511Q10040 489 10075 452Q10111 415 10129 366Q10148 317 10148 264Q10148 251 10147 239Q10147 227 10145 219L9740 219Q9743 188 9755 164Q9767 140 9786 123Q9805 106 9829 97Q9853 88 9879 88Q9919 88 9954 107Q9990 127 10003 159L10118 127Q10089 67 10025 28Q9962 -10 9874 -10ZM9738 306L10010 306Q10005 365 9966 400Q9928 436 9873 436Q9846 436 9822 426Q9799 417 9781 400Q9763 383 9751 359Q9740 335 9738 306ZM10542 530L10542 408Q10481 407 10433 384Q10385 362 10364 317L10364 0L10230 0L10230 524L10353 524L10353 412Q10367 439 10386 460Q10405 482 10427 498Q10449 514 10471 522Q10494 531 10515 531Q10526 531 10531 531Q10537 531 10542 530ZM10904 133L10931 27Q10904 15 10865 3Q10826 -9 10783 -9Q10755 -9 10730 -2Q10706 5 10687 20Q10669 36 10658 60Q10647 85 10647 120L10647 421L10578 421L10578 524L10647 524L10647 694L10781 694L10781 524L10891 524L10891 421L10781 421L10781 165Q10781 137 10795 125Q10810 114 10831 114Q10852 114 10872 121Q10892 128 10904 133ZM11144 -10Q11106 -10 11073 2Q11040 15 11016 37Q10992 60 10978 90Q10965 120 10965 156Q10965 193 10981 224Q10998 256 11027 278Q11057 300 11098 312Q11139 325 11188 325Q11223 325 11256 319Q11290 313 11316 302L11316 332Q11316 384 11286 412Q11257 440 11199 440Q11157 440 11117 425Q11077 410 11035 381L10994 466Q11095 533 11212 533Q11325 533 11387 477Q11450 422 11450 317L11450 154Q11450 133 11457 124Q11465 115 11482 114L11482 0Q11448 -7 11423 -7Q11385 -7 11364 10Q11344 27 11339 55L11336 84Q11301 38 11251 14Q11201 -10 11144 -10ZM11182 88Q11216 88 11246 100Q11277 112 11294 132Q11316 149 11316 170L11316 230Q11292 239 11264 244Q11236 250 11210 250Q11158 250 11125 226Q11092 203 11092 167Q11092 133 11118 110Q11144 88 11182 88Z" fill="#1a283f" style=""></path></g></g></g></svg>