<svg xmlns="http://www.w3.org/2000/svg" xmlns:xlink="http://www.w3.org/1999/xlink" width="70" zoomAndPan="magnify" viewBox="0 0 52.5 37.5" height="50" preserveAspectRatio="xMidYMid meet" version="1.0"><defs><clipPath id="id1"><path d="M 0.0976562 15.871094 L 51.90625 15.871094 L 51.90625 23.34375 L 0.0976562 23.34375 Z M 0.0976562 15.871094 " clip-rule="nonzero"/></clipPath><clipPath id="id2"><path d="M 22 20 L 51.90625 20 L 51.90625 23 L 22 23 Z M 22 20 " clip-rule="nonzero"/></clipPath></defs><g clip-path="url(#id1)"><path fill="#24252a" d="M 0.117188 15.871094 L 52.382812 15.871094 L 52.382812 23.34375 L 0.117188 23.34375 Z M 0.117188 15.871094 " fill-opacity="1" fill-rule="nonzero"/></g><path fill="#ffffff" d="M 16.882812 21.539062 C 16.859375 21.519531 16.828125 21.515625 16.816406 21.53125 C 16.796875 21.550781 16.804688 21.585938 16.828125 21.613281 C 17.074219 21.902344 17.417969 22.082031 17.796875 22.082031 C 18.171875 22.082031 18.515625 21.902344 18.761719 21.613281 C 18.785156 21.585938 18.789062 21.550781 18.773438 21.53125 C 18.761719 21.515625 18.730469 21.519531 18.707031 21.539062 C 18.457031 21.761719 18.140625 21.894531 17.792969 21.894531 C 17.449219 21.894531 17.128906 21.761719 16.882812 21.539062 Z M 16.015625 20.613281 C 16.015625 19.648438 16.816406 18.867188 17.796875 18.867188 C 18.78125 18.867188 19.582031 19.648438 19.582031 20.613281 C 19.582031 21.578125 18.78125 22.359375 17.796875 22.359375 C 16.816406 22.359375 16.015625 21.578125 16.015625 20.613281 Z M 15.359375 20.585938 C 15.179688 20.585938 14.996094 20.582031 14.8125 20.582031 C 13.375 20.582031 12.03125 20.664062 10.890625 20.808594 C 12.136719 20.757812 13.707031 20.75 15.363281 20.871094 C 15.355469 20.820312 15.355469 20.769531 15.355469 20.71875 C 15.355469 20.675781 15.355469 20.632812 15.359375 20.585938 Z M 15.140625 17.355469 C 15.214844 17.257812 15.042969 17.234375 15.042969 17.234375 C 14.785156 17.203125 14.527344 17.175781 14.277344 17.148438 C 12.542969 16.984375 10.976562 17.007812 9.921875 17.410156 C 9.246094 17.667969 8.59375 17.9375 7.636719 18.3125 C 9.136719 18.3125 13.441406 18.324219 13.441406 18.324219 C 14.042969 18.324219 14.375 18.070312 14.503906 17.953125 C 14.503906 17.953125 15.109375 17.398438 15.140625 17.355469 Z M 21.21875 18.445312 C 19.5625 18.066406 17.566406 17.625 15.648438 17.34375 C 15.460938 17.519531 15.261719 17.707031 15.054688 17.902344 C 17.703125 17.972656 20.183594 18.296875 21.21875 18.445312 Z M 20.328125 20.507812 C 19.878906 20.976562 20.453125 21.246094 20.269531 21.277344 L 19.671875 21.277344 C 19.746094 21.070312 19.789062 20.84375 19.789062 20.613281 C 19.789062 19.535156 18.898438 18.660156 17.796875 18.660156 C 16.699219 18.660156 15.808594 19.535156 15.808594 20.613281 C 15.808594 20.90625 15.875 21.183594 15.992188 21.429688 C 11.953125 21.042969 8.242188 21.503906 8.242188 21.503906 L 6.554688 21.847656 C 6.835938 21.511719 7.003906 21.082031 7.003906 20.613281 C 7.003906 19.535156 6.113281 18.660156 5.011719 18.660156 C 3.914062 18.660156 3.023438 19.535156 3.023438 20.613281 C 3.023438 21.042969 3.164062 21.441406 3.40625 21.761719 C 2.402344 21.710938 1.585938 21.652344 1.160156 21.402344 C 0.90625 21.253906 2.035156 21.257812 1.34375 19.695312 C 2.09375 19.632812 2.839844 19.539062 2.839844 19.414062 L 2.839844 19.394531 L 1.199219 19.394531 C 2.464844 18.53125 4.003906 18.214844 5.917969 18.214844 C 6.675781 18.1875 7.277344 18.0625 7.820312 17.898438 C 8.574219 17.617188 9.359375 17.335938 9.828125 17.175781 C 12.5 16.265625 18.027344 17.503906 21.597656 18.328125 L 21.570312 18.449219 C 21.535156 18.625 21.253906 19.679688 20.328125 20.507812 Z M 4.09375 21.539062 C 4.070312 21.519531 4.042969 21.515625 4.027344 21.53125 C 4.011719 21.550781 4.019531 21.585938 4.042969 21.613281 C 4.289062 21.902344 4.632812 22.082031 5.007812 22.082031 C 5.386719 22.082031 5.726562 21.902344 5.976562 21.613281 C 6 21.585938 6.003906 21.550781 5.988281 21.53125 C 5.972656 21.515625 5.945312 21.519531 5.921875 21.539062 C 5.671875 21.761719 5.355469 21.894531 5.007812 21.894531 C 4.664062 21.894531 4.34375 21.761719 4.09375 21.539062 Z M 3.230469 20.613281 C 3.230469 19.648438 4.027344 18.867188 5.011719 18.867188 C 5.996094 18.867188 6.792969 19.648438 6.792969 20.613281 C 6.792969 21.578125 5.996094 22.359375 5.011719 22.359375 C 4.027344 22.359375 3.230469 21.578125 3.230469 20.613281 Z M 3.230469 20.613281 " fill-opacity="1" fill-rule="nonzero"/><path fill="#ffffff" d="M 24.269531 18.421875 L 24.207031 19.019531 L 22.601562 19.019531 L 22.601562 18.851562 L 22.886719 18.851562 L 22.886719 17.054688 L 22.601562 17.054688 L 22.601562 16.886719 L 24.171875 16.886719 L 24.238281 17.484375 L 24.070312 17.503906 L 24.003906 17.054688 L 23.078125 17.054688 L 23.078125 17.851562 L 24.132812 17.851562 L 24.132812 18.019531 L 23.078125 18.019531 L 23.078125 18.851562 L 24.035156 18.851562 L 24.101562 18.402344 Z M 25.675781 18.507812 L 25.832031 18.542969 C 25.8125 18.671875 25.753906 18.789062 25.65625 18.894531 C 25.5625 19 25.417969 19.054688 25.222656 19.054688 C 25.019531 19.054688 24.859375 18.988281 24.742188 18.855469 C 24.625 18.726562 24.566406 18.542969 24.566406 18.316406 C 24.566406 18.191406 24.589844 18.066406 24.636719 17.949219 C 24.683594 17.828125 24.753906 17.730469 24.851562 17.652344 C 24.953125 17.574219 25.082031 17.535156 25.238281 17.535156 C 25.441406 17.535156 25.605469 17.585938 25.738281 17.691406 L 25.789062 18.015625 L 25.636719 18.035156 L 25.578125 17.789062 C 25.488281 17.726562 25.375 17.695312 25.238281 17.695312 C 25.0625 17.695312 24.9375 17.757812 24.867188 17.882812 C 24.796875 18.003906 24.761719 18.144531 24.761719 18.300781 C 24.761719 18.488281 24.804688 18.632812 24.886719 18.738281 C 24.96875 18.839844 25.089844 18.894531 25.246094 18.894531 C 25.480469 18.894531 25.625 18.765625 25.675781 18.507812 Z M 27.765625 18.871094 L 27.765625 19.019531 L 27.304688 19.019531 L 27.304688 18.730469 C 27.257812 18.828125 27.1875 18.90625 27.09375 18.964844 C 27.003906 19.023438 26.898438 19.054688 26.777344 19.054688 C 26.628906 19.054688 26.507812 19.007812 26.410156 18.917969 C 26.3125 18.828125 26.261719 18.683594 26.261719 18.484375 L 26.261719 17.71875 L 25.988281 17.71875 L 25.988281 17.5625 L 26.445312 17.5625 L 26.445312 18.441406 C 26.445312 18.609375 26.480469 18.726562 26.554688 18.792969 C 26.625 18.859375 26.71875 18.894531 26.832031 18.894531 C 26.964844 18.894531 27.074219 18.839844 27.164062 18.738281 C 27.25 18.636719 27.296875 18.53125 27.304688 18.425781 L 27.304688 17.71875 L 26.976562 17.71875 L 26.976562 17.5625 L 27.488281 17.5625 L 27.488281 18.871094 Z M 28.050781 18.003906 L 28.101562 17.679688 C 28.164062 17.628906 28.242188 17.59375 28.328125 17.570312 C 28.417969 17.546875 28.507812 17.535156 28.59375 17.535156 C 28.9375 17.535156 29.109375 17.699219 29.109375 18.023438 L 29.109375 18.730469 C 29.109375 18.84375 29.15625 18.898438 29.242188 18.898438 C 29.285156 18.898438 29.324219 18.890625 29.351562 18.875 L 29.355469 19.007812 C 29.304688 19.039062 29.25 19.054688 29.179688 19.054688 C 29.011719 19.054688 28.925781 18.953125 28.925781 18.757812 L 28.925781 18.75 C 28.878906 18.832031 28.8125 18.898438 28.722656 18.960938 C 28.636719 19.023438 28.53125 19.054688 28.414062 19.054688 C 28.316406 19.054688 28.214844 19.023438 28.113281 18.96875 C 28.011719 18.910156 27.960938 18.800781 27.960938 18.648438 C 27.960938 18.460938 28.039062 18.34375 28.1875 18.285156 C 28.335938 18.226562 28.492188 18.195312 28.660156 18.195312 C 28.707031 18.195312 28.75 18.199219 28.796875 18.203125 C 28.84375 18.207031 28.886719 18.207031 28.925781 18.210938 L 28.925781 18.054688 C 28.925781 17.945312 28.898438 17.855469 28.847656 17.792969 C 28.796875 17.726562 28.703125 17.695312 28.566406 17.695312 C 28.453125 17.695312 28.351562 17.71875 28.265625 17.761719 L 28.203125 18.023438 Z M 28.925781 18.484375 L 28.925781 18.351562 C 28.882812 18.347656 28.839844 18.34375 28.789062 18.339844 C 28.742188 18.335938 28.6875 18.335938 28.636719 18.335938 C 28.515625 18.335938 28.40625 18.351562 28.304688 18.390625 C 28.207031 18.425781 28.15625 18.503906 28.15625 18.625 C 28.15625 18.730469 28.191406 18.804688 28.261719 18.839844 C 28.328125 18.875 28.398438 18.894531 28.460938 18.894531 C 28.574219 18.894531 28.675781 18.855469 28.773438 18.78125 C 28.867188 18.703125 28.921875 18.605469 28.925781 18.484375 Z M 31.382812 18.488281 L 31.324219 18.871094 C 31.152344 18.992188 30.917969 19.054688 30.621094 19.054688 C 30.304688 19.054688 30.046875 18.949219 29.855469 18.738281 C 29.660156 18.527344 29.5625 18.269531 29.5625 17.960938 C 29.5625 17.757812 29.605469 17.574219 29.695312 17.40625 C 29.78125 17.238281 29.902344 17.105469 30.054688 17.007812 C 30.207031 16.90625 30.382812 16.855469 30.578125 16.855469 C 30.753906 16.855469 30.902344 16.878906 31.023438 16.925781 C 31.144531 16.96875 31.25 17.027344 31.34375 17.105469 L 31.402344 17.488281 L 31.238281 17.507812 L 31.167969 17.1875 C 31.097656 17.136719 31.019531 17.101562 30.933594 17.070312 C 30.851562 17.042969 30.742188 17.027344 30.605469 17.027344 C 30.355469 17.027344 30.152344 17.113281 30 17.292969 C 29.84375 17.46875 29.765625 17.691406 29.765625 17.957031 C 29.765625 18.226562 29.84375 18.449219 30 18.625 C 30.160156 18.796875 30.378906 18.882812 30.652344 18.882812 C 30.753906 18.882812 30.84375 18.875 30.917969 18.863281 C 30.996094 18.847656 31.074219 18.820312 31.148438 18.785156 L 31.214844 18.46875 Z M 31.8125 18.003906 L 31.867188 17.679688 C 31.929688 17.628906 32.003906 17.59375 32.089844 17.570312 C 32.179688 17.546875 32.269531 17.535156 32.359375 17.535156 C 32.703125 17.535156 32.875 17.699219 32.875 18.023438 L 32.875 18.730469 C 32.875 18.84375 32.917969 18.898438 33.003906 18.898438 C 33.050781 18.898438 33.085938 18.890625 33.113281 18.875 L 33.117188 19.007812 C 33.070312 19.039062 33.011719 19.054688 32.945312 19.054688 C 32.773438 19.054688 32.691406 18.953125 32.691406 18.757812 L 32.691406 18.75 C 32.644531 18.832031 32.574219 18.898438 32.484375 18.960938 C 32.398438 19.023438 32.296875 19.054688 32.175781 19.054688 C 32.078125 19.054688 31.980469 19.023438 31.875 18.96875 C 31.777344 18.910156 31.726562 18.800781 31.726562 18.648438 C 31.726562 18.460938 31.800781 18.34375 31.949219 18.285156 C 32.097656 18.226562 32.257812 18.195312 32.421875 18.195312 C 32.46875 18.195312 32.515625 18.199219 32.558594 18.203125 C 32.605469 18.207031 32.648438 18.207031 32.691406 18.210938 L 32.691406 18.054688 C 32.691406 17.945312 32.664062 17.855469 32.609375 17.792969 C 32.558594 17.726562 32.464844 17.695312 32.328125 17.695312 C 32.214844 17.695312 32.117188 17.71875 32.027344 17.761719 L 31.964844 18.023438 Z M 32.691406 18.484375 L 32.691406 18.351562 C 32.648438 18.347656 32.601562 18.34375 32.550781 18.339844 C 32.503906 18.335938 32.453125 18.335938 32.398438 18.335938 C 32.277344 18.335938 32.167969 18.351562 32.066406 18.390625 C 31.96875 18.425781 31.917969 18.503906 31.917969 18.625 C 31.917969 18.730469 31.953125 18.804688 32.023438 18.839844 C 32.09375 18.875 32.160156 18.894531 32.222656 18.894531 C 32.335938 18.894531 32.441406 18.855469 32.535156 18.78125 C 32.632812 18.703125 32.683594 18.605469 32.691406 18.484375 Z M 34.101562 17.539062 C 34.207031 17.539062 34.289062 17.5625 34.347656 17.613281 L 34.398438 17.9375 L 34.246094 17.957031 L 34.1875 17.707031 C 34.15625 17.699219 34.117188 17.695312 34.074219 17.695312 C 33.976562 17.695312 33.898438 17.734375 33.835938 17.816406 C 33.773438 17.898438 33.742188 18 33.742188 18.125 L 33.742188 18.871094 L 34.105469 18.871094 L 34.105469 19.019531 L 33.277344 19.019531 L 33.277344 18.871094 L 33.558594 18.871094 L 33.558594 17.71875 L 33.277344 17.71875 L 33.277344 17.5625 L 33.730469 17.5625 L 33.730469 17.824219 C 33.761719 17.742188 33.808594 17.675781 33.878906 17.621094 C 33.945312 17.566406 34.023438 17.539062 34.101562 17.539062 Z M 35.867188 18.605469 C 35.867188 18.742188 35.808594 18.851562 35.6875 18.933594 C 35.574219 19.011719 35.429688 19.054688 35.257812 19.054688 C 35.152344 19.054688 35.046875 19.039062 34.945312 19.011719 C 34.84375 18.980469 34.769531 18.945312 34.714844 18.910156 L 34.753906 18.601562 L 34.90625 18.613281 L 34.890625 18.8125 C 34.996094 18.867188 35.117188 18.894531 35.25 18.894531 C 35.359375 18.894531 35.457031 18.871094 35.546875 18.832031 C 35.632812 18.785156 35.679688 18.71875 35.679688 18.625 C 35.679688 18.539062 35.648438 18.476562 35.582031 18.441406 C 35.519531 18.402344 35.441406 18.375 35.347656 18.359375 C 35.253906 18.34375 35.160156 18.324219 35.066406 18.304688 C 34.976562 18.285156 34.898438 18.25 34.832031 18.195312 C 34.769531 18.144531 34.738281 18.0625 34.738281 17.949219 C 34.738281 17.800781 34.792969 17.695312 34.902344 17.632812 C 35.011719 17.566406 35.132812 17.535156 35.261719 17.535156 C 35.363281 17.535156 35.460938 17.546875 35.546875 17.578125 C 35.640625 17.605469 35.714844 17.636719 35.769531 17.667969 L 35.804688 18.003906 L 35.648438 18.023438 L 35.609375 17.777344 C 35.5625 17.753906 35.511719 17.734375 35.460938 17.71875 C 35.410156 17.703125 35.351562 17.695312 35.285156 17.695312 C 35.179688 17.695312 35.09375 17.714844 35.03125 17.75 C 34.964844 17.789062 34.933594 17.847656 34.933594 17.929688 C 34.933594 18.015625 34.964844 18.074219 35.027344 18.109375 C 35.089844 18.140625 35.167969 18.164062 35.261719 18.179688 C 35.355469 18.195312 35.445312 18.214844 35.539062 18.238281 C 35.632812 18.257812 35.710938 18.296875 35.773438 18.351562 C 35.835938 18.40625 35.867188 18.492188 35.867188 18.605469 Z M 35.867188 18.605469 " fill-opacity="1" fill-rule="nonzero"/><g clip-path="url(#id2)"><path fill="#ffffff" d="M 23.949219 20.269531 L 23.796875 20.542969 C 23.785156 20.535156 23.761719 20.519531 23.730469 20.496094 C 23.699219 20.476562 23.664062 20.460938 23.617188 20.441406 C 23.574219 20.421875 23.527344 20.40625 23.472656 20.390625 C 23.421875 20.378906 23.371094 20.371094 23.316406 20.371094 C 23.21875 20.371094 23.148438 20.390625 23.101562 20.425781 C 23.054688 20.457031 23.03125 20.507812 23.03125 20.570312 C 23.03125 20.605469 23.039062 20.636719 23.058594 20.660156 C 23.074219 20.683594 23.101562 20.703125 23.136719 20.722656 C 23.167969 20.738281 23.210938 20.757812 23.261719 20.769531 C 23.3125 20.785156 23.371094 20.800781 23.4375 20.816406 C 23.527344 20.839844 23.605469 20.867188 23.675781 20.890625 C 23.746094 20.917969 23.808594 20.949219 23.855469 20.988281 C 23.90625 21.03125 23.945312 21.078125 23.972656 21.132812 C 24 21.1875 24.011719 21.253906 24.011719 21.335938 C 24.011719 21.429688 23.992188 21.507812 23.957031 21.574219 C 23.921875 21.640625 23.871094 21.695312 23.8125 21.734375 C 23.75 21.777344 23.679688 21.808594 23.601562 21.828125 C 23.519531 21.84375 23.4375 21.855469 23.351562 21.855469 C 23.21875 21.855469 23.085938 21.835938 22.953125 21.792969 C 22.824219 21.753906 22.707031 21.699219 22.601562 21.628906 L 22.757812 21.335938 C 22.769531 21.347656 22.796875 21.367188 22.835938 21.394531 C 22.875 21.417969 22.921875 21.441406 22.976562 21.464844 C 23.03125 21.488281 23.089844 21.507812 23.15625 21.523438 C 23.21875 21.539062 23.289062 21.546875 23.355469 21.546875 C 23.546875 21.546875 23.640625 21.488281 23.640625 21.367188 C 23.640625 21.332031 23.632812 21.300781 23.609375 21.273438 C 23.589844 21.246094 23.558594 21.222656 23.515625 21.203125 C 23.476562 21.183594 23.429688 21.167969 23.371094 21.148438 C 23.3125 21.132812 23.25 21.117188 23.179688 21.097656 C 23.09375 21.074219 23.019531 21.046875 22.957031 21.023438 C 22.894531 20.996094 22.84375 20.960938 22.800781 20.925781 C 22.757812 20.886719 22.726562 20.847656 22.707031 20.796875 C 22.6875 20.75 22.675781 20.691406 22.675781 20.625 C 22.675781 20.535156 22.691406 20.457031 22.726562 20.386719 C 22.757812 20.316406 22.804688 20.261719 22.863281 20.214844 C 22.925781 20.167969 22.992188 20.132812 23.074219 20.113281 C 23.152344 20.085938 23.234375 20.074219 23.324219 20.074219 C 23.453125 20.074219 23.566406 20.09375 23.671875 20.132812 C 23.777344 20.171875 23.871094 20.214844 23.949219 20.269531 Z M 24.851562 21.859375 C 24.746094 21.859375 24.648438 21.839844 24.5625 21.808594 C 24.480469 21.769531 24.40625 21.722656 24.34375 21.660156 C 24.285156 21.601562 24.238281 21.53125 24.203125 21.449219 C 24.171875 21.371094 24.15625 21.285156 24.15625 21.195312 C 24.15625 21.105469 24.171875 21.019531 24.203125 20.9375 C 24.238281 20.855469 24.28125 20.785156 24.34375 20.722656 C 24.402344 20.660156 24.476562 20.613281 24.5625 20.578125 C 24.648438 20.539062 24.746094 20.523438 24.851562 20.523438 C 24.960938 20.523438 25.054688 20.539062 25.140625 20.578125 C 25.222656 20.613281 25.296875 20.660156 25.355469 20.722656 C 25.414062 20.78125 25.460938 20.851562 25.492188 20.933594 C 25.523438 21.015625 25.539062 21.097656 25.539062 21.183594 C 25.539062 21.207031 25.539062 21.226562 25.535156 21.246094 C 25.535156 21.265625 25.535156 21.28125 25.53125 21.296875 L 24.515625 21.296875 C 24.519531 21.347656 24.53125 21.390625 24.550781 21.429688 C 24.570312 21.46875 24.597656 21.503906 24.628906 21.53125 C 24.660156 21.558594 24.695312 21.582031 24.738281 21.59375 C 24.777344 21.609375 24.820312 21.617188 24.863281 21.617188 C 24.929688 21.617188 24.992188 21.601562 25.050781 21.570312 C 25.109375 21.539062 25.152344 21.496094 25.175781 21.441406 L 25.460938 21.523438 C 25.414062 21.621094 25.335938 21.703125 25.230469 21.765625 C 25.125 21.828125 24.996094 21.859375 24.851562 21.859375 Z M 24.507812 21.082031 L 25.191406 21.082031 C 25.183594 20.984375 25.144531 20.90625 25.082031 20.851562 C 25.015625 20.789062 24.941406 20.761719 24.847656 20.761719 C 24.800781 20.761719 24.757812 20.769531 24.71875 20.785156 C 24.679688 20.800781 24.648438 20.820312 24.617188 20.851562 C 24.585938 20.878906 24.5625 20.910156 24.542969 20.949219 C 24.523438 20.988281 24.511719 21.035156 24.507812 21.082031 Z M 26.527344 20.53125 L 26.527344 20.832031 C 26.425781 20.832031 26.335938 20.851562 26.253906 20.890625 C 26.171875 20.925781 26.117188 20.980469 26.082031 21.054688 L 26.082031 21.835938 L 25.742188 21.835938 L 25.742188 20.542969 L 26.054688 20.542969 L 26.054688 20.820312 C 26.078125 20.777344 26.105469 20.738281 26.136719 20.703125 C 26.167969 20.667969 26.203125 20.636719 26.238281 20.609375 C 26.277344 20.582031 26.3125 20.5625 26.347656 20.550781 C 26.386719 20.535156 26.425781 20.527344 26.460938 20.527344 C 26.476562 20.527344 26.492188 20.527344 26.5 20.527344 C 26.507812 20.527344 26.519531 20.527344 26.527344 20.53125 Z M 27.433594 21.835938 L 27.070312 21.835938 L 26.585938 20.542969 L 26.929688 20.542969 L 27.265625 21.566406 L 27.601562 20.542969 L 27.917969 20.542969 Z M 28.429688 21.835938 L 28.09375 21.835938 L 28.09375 20.542969 L 28.429688 20.542969 Z M 28.429688 20.363281 L 28.09375 20.363281 L 28.09375 20.039062 L 28.429688 20.039062 Z M 28.652344 21.1875 C 28.652344 21.097656 28.667969 21.015625 28.699219 20.933594 C 28.730469 20.851562 28.777344 20.78125 28.835938 20.722656 C 28.898438 20.660156 28.96875 20.613281 29.054688 20.578125 C 29.140625 20.539062 29.238281 20.523438 29.34375 20.523438 C 29.488281 20.523438 29.609375 20.554688 29.710938 20.613281 C 29.8125 20.675781 29.890625 20.753906 29.941406 20.851562 L 29.609375 20.949219 C 29.582031 20.902344 29.542969 20.867188 29.496094 20.84375 C 29.449219 20.816406 29.398438 20.804688 29.34375 20.804688 C 29.292969 20.804688 29.25 20.8125 29.207031 20.832031 C 29.164062 20.851562 29.128906 20.875 29.097656 20.910156 C 29.066406 20.945312 29.042969 20.984375 29.023438 21.03125 C 29.007812 21.078125 28.996094 21.132812 28.996094 21.1875 C 28.996094 21.246094 29.007812 21.300781 29.027344 21.347656 C 29.042969 21.394531 29.066406 21.433594 29.097656 21.46875 C 29.128906 21.503906 29.167969 21.53125 29.207031 21.550781 C 29.25 21.570312 29.296875 21.578125 29.34375 21.578125 C 29.402344 21.578125 29.457031 21.5625 29.507812 21.535156 C 29.558594 21.503906 29.59375 21.46875 29.617188 21.425781 L 29.945312 21.523438 C 29.898438 21.621094 29.824219 21.703125 29.722656 21.765625 C 29.617188 21.828125 29.492188 21.859375 29.347656 21.859375 C 29.238281 21.859375 29.144531 21.839844 29.058594 21.804688 C 28.972656 21.769531 28.898438 21.71875 28.839844 21.660156 C 28.78125 21.597656 28.734375 21.527344 28.699219 21.445312 C 28.667969 21.363281 28.652344 21.277344 28.652344 21.1875 Z M 30.488281 21.835938 L 30.148438 21.835938 L 30.148438 20.542969 L 30.488281 20.542969 Z M 30.488281 20.363281 L 30.148438 20.363281 L 30.148438 20.039062 L 30.488281 20.039062 Z M 31.398438 21.859375 C 31.292969 21.859375 31.195312 21.839844 31.109375 21.804688 C 31.023438 21.769531 30.953125 21.71875 30.890625 21.660156 C 30.832031 21.597656 30.789062 21.527344 30.753906 21.445312 C 30.722656 21.363281 30.707031 21.28125 30.707031 21.191406 C 30.707031 21.101562 30.722656 21.015625 30.753906 20.9375 C 30.789062 20.855469 30.832031 20.785156 30.890625 20.722656 C 30.953125 20.660156 31.023438 20.613281 31.109375 20.578125 C 31.195312 20.539062 31.292969 20.523438 31.398438 20.523438 C 31.503906 20.523438 31.601562 20.539062 31.683594 20.578125 C 31.769531 20.613281 31.84375 20.660156 31.902344 20.722656 C 31.960938 20.785156 32.007812 20.855469 32.039062 20.9375 C 32.070312 21.015625 32.085938 21.101562 32.085938 21.191406 C 32.085938 21.28125 32.070312 21.363281 32.039062 21.445312 C 32.007812 21.527344 31.960938 21.597656 31.902344 21.660156 C 31.84375 21.71875 31.773438 21.769531 31.6875 21.804688 C 31.601562 21.839844 31.503906 21.859375 31.398438 21.859375 Z M 31.054688 21.191406 C 31.054688 21.25 31.0625 21.300781 31.078125 21.347656 C 31.097656 21.394531 31.121094 21.433594 31.152344 21.46875 C 31.183594 21.503906 31.222656 21.53125 31.261719 21.550781 C 31.304688 21.570312 31.351562 21.578125 31.398438 21.578125 C 31.445312 21.578125 31.492188 21.570312 31.535156 21.550781 C 31.574219 21.53125 31.613281 21.503906 31.640625 21.46875 C 31.671875 21.433594 31.699219 21.394531 31.714844 21.347656 C 31.734375 21.300781 31.742188 21.246094 31.742188 21.1875 C 31.742188 21.132812 31.734375 21.082031 31.714844 21.035156 C 31.699219 20.988281 31.671875 20.945312 31.640625 20.910156 C 31.613281 20.875 31.574219 20.851562 31.535156 20.832031 C 31.492188 20.8125 31.445312 20.804688 31.398438 20.804688 C 31.351562 20.804688 31.304688 20.8125 31.261719 20.832031 C 31.222656 20.851562 31.183594 20.878906 31.152344 20.914062 C 31.121094 20.949219 31.097656 20.988281 31.078125 21.035156 C 31.0625 21.085938 31.054688 21.136719 31.054688 21.191406 Z M 33.703125 21.859375 C 33.597656 21.859375 33.507812 21.835938 33.433594 21.792969 C 33.355469 21.746094 33.292969 21.683594 33.25 21.609375 L 33.25 22.359375 L 32.914062 22.359375 L 32.914062 20.542969 L 33.207031 20.542969 L 33.207031 20.765625 C 33.257812 20.691406 33.320312 20.632812 33.398438 20.589844 C 33.472656 20.542969 33.5625 20.523438 33.664062 20.523438 C 33.75 20.523438 33.832031 20.539062 33.910156 20.578125 C 33.984375 20.609375 34.046875 20.660156 34.101562 20.71875 C 34.15625 20.777344 34.199219 20.847656 34.230469 20.929688 C 34.261719 21.011719 34.277344 21.097656 34.277344 21.1875 C 34.277344 21.28125 34.265625 21.367188 34.234375 21.449219 C 34.207031 21.53125 34.167969 21.605469 34.113281 21.664062 C 34.066406 21.726562 34.003906 21.773438 33.933594 21.808594 C 33.863281 21.839844 33.785156 21.859375 33.703125 21.859375 Z M 33.589844 21.578125 C 33.640625 21.578125 33.6875 21.566406 33.726562 21.546875 C 33.773438 21.523438 33.808594 21.496094 33.839844 21.460938 C 33.867188 21.425781 33.890625 21.382812 33.910156 21.335938 C 33.925781 21.285156 33.933594 21.238281 33.933594 21.1875 C 33.933594 21.132812 33.925781 21.082031 33.90625 21.035156 C 33.886719 20.988281 33.863281 20.949219 33.828125 20.914062 C 33.796875 20.878906 33.757812 20.851562 33.714844 20.832031 C 33.667969 20.8125 33.621094 20.804688 33.570312 20.804688 C 33.539062 20.804688 33.503906 20.808594 33.472656 20.820312 C 33.4375 20.832031 33.40625 20.84375 33.378906 20.863281 C 33.351562 20.882812 33.324219 20.90625 33.300781 20.933594 C 33.28125 20.960938 33.261719 20.988281 33.25 21.019531 L 33.25 21.324219 C 33.28125 21.394531 33.328125 21.457031 33.390625 21.507812 C 33.453125 21.554688 33.519531 21.578125 33.589844 21.578125 Z M 34.910156 21.859375 C 34.773438 21.859375 34.667969 21.816406 34.597656 21.730469 C 34.527344 21.644531 34.492188 21.519531 34.492188 21.351562 L 34.492188 20.542969 L 34.832031 20.542969 L 34.832031 21.28125 C 34.832031 21.480469 34.902344 21.578125 35.050781 21.578125 C 35.113281 21.578125 35.175781 21.558594 35.238281 21.523438 C 35.300781 21.480469 35.347656 21.421875 35.386719 21.34375 L 35.386719 20.542969 L 35.722656 20.542969 L 35.722656 21.457031 C 35.722656 21.488281 35.730469 21.515625 35.742188 21.527344 C 35.753906 21.542969 35.777344 21.550781 35.804688 21.554688 L 35.804688 21.835938 C 35.769531 21.839844 35.742188 21.84375 35.71875 21.847656 C 35.699219 21.847656 35.675781 21.847656 35.660156 21.847656 C 35.597656 21.847656 35.550781 21.835938 35.511719 21.808594 C 35.472656 21.78125 35.453125 21.742188 35.445312 21.695312 L 35.4375 21.59375 C 35.378906 21.679688 35.304688 21.746094 35.210938 21.792969 C 35.121094 21.835938 35.019531 21.859375 34.910156 21.859375 Z M 36.667969 21.859375 C 36.5625 21.859375 36.46875 21.839844 36.382812 21.808594 C 36.296875 21.769531 36.222656 21.722656 36.164062 21.660156 C 36.101562 21.601562 36.054688 21.53125 36.023438 21.449219 C 35.992188 21.371094 35.976562 21.285156 35.976562 21.195312 C 35.976562 21.105469 35.992188 21.019531 36.023438 20.9375 C 36.054688 20.855469 36.101562 20.785156 36.160156 20.722656 C 36.222656 20.660156 36.292969 20.613281 36.378906 20.578125 C 36.464844 20.539062 36.5625 20.523438 36.671875 20.523438 C 36.777344 20.523438 36.875 20.539062 36.957031 20.578125 C 37.042969 20.613281 37.113281 20.660156 37.171875 20.722656 C 37.234375 20.78125 37.277344 20.851562 37.308594 20.933594 C 37.339844 21.015625 37.355469 21.097656 37.355469 21.183594 C 37.355469 21.207031 37.355469 21.226562 37.355469 21.246094 C 37.355469 21.265625 37.351562 21.28125 37.347656 21.296875 L 36.332031 21.296875 C 36.335938 21.347656 36.347656 21.390625 36.371094 21.429688 C 36.390625 21.46875 36.414062 21.503906 36.449219 21.53125 C 36.480469 21.558594 36.515625 21.582031 36.554688 21.59375 C 36.59375 21.609375 36.636719 21.617188 36.679688 21.617188 C 36.746094 21.617188 36.8125 21.601562 36.871094 21.570312 C 36.929688 21.539062 36.96875 21.496094 36.992188 21.441406 L 37.28125 21.523438 C 37.234375 21.621094 37.15625 21.703125 37.046875 21.765625 C 36.941406 21.828125 36.816406 21.859375 36.667969 21.859375 Z M 36.328125 21.082031 L 37.011719 21.082031 C 37 20.984375 36.964844 20.90625 36.898438 20.851562 C 36.835938 20.789062 36.757812 20.761719 36.664062 20.761719 C 36.621094 20.761719 36.578125 20.769531 36.539062 20.785156 C 36.5 20.800781 36.464844 20.820312 36.433594 20.851562 C 36.40625 20.878906 36.378906 20.910156 36.359375 20.949219 C 36.339844 20.988281 36.332031 21.035156 36.328125 21.082031 Z M 38.34375 20.53125 L 38.34375 20.832031 C 38.242188 20.832031 38.152344 20.851562 38.070312 20.890625 C 37.992188 20.925781 37.933594 20.980469 37.898438 21.054688 L 37.898438 21.835938 L 37.5625 21.835938 L 37.5625 20.542969 L 37.871094 20.542969 L 37.871094 20.820312 C 37.894531 20.777344 37.921875 20.738281 37.953125 20.703125 C 37.984375 20.667969 38.019531 20.636719 38.058594 20.609375 C 38.09375 20.582031 38.128906 20.5625 38.167969 20.550781 C 38.207031 20.535156 38.242188 20.527344 38.277344 20.527344 C 38.296875 20.527344 38.308594 20.527344 38.316406 20.527344 C 38.328125 20.527344 38.335938 20.527344 38.34375 20.53125 Z M 39.253906 21.507812 L 39.324219 21.769531 C 39.277344 21.789062 39.222656 21.808594 39.15625 21.828125 C 39.089844 21.847656 39.023438 21.855469 38.949219 21.855469 C 38.902344 21.855469 38.859375 21.851562 38.816406 21.839844 C 38.777344 21.828125 38.742188 21.808594 38.710938 21.785156 C 38.679688 21.757812 38.65625 21.726562 38.636719 21.6875 C 38.617188 21.644531 38.609375 21.597656 38.609375 21.539062 L 38.609375 20.796875 L 38.4375 20.796875 L 38.4375 20.542969 L 38.609375 20.542969 L 38.609375 20.125 L 38.945312 20.125 L 38.945312 20.542969 L 39.222656 20.542969 L 39.222656 20.796875 L 38.945312 20.796875 L 38.945312 21.429688 C 38.945312 21.472656 38.957031 21.507812 38.980469 21.527344 C 39.007812 21.542969 39.035156 21.554688 39.070312 21.554688 C 39.105469 21.554688 39.140625 21.546875 39.175781 21.535156 C 39.207031 21.523438 39.234375 21.515625 39.253906 21.507812 Z M 39.855469 21.859375 C 39.792969 21.859375 39.734375 21.847656 39.679688 21.828125 C 39.625 21.808594 39.574219 21.777344 39.535156 21.742188 C 39.496094 21.707031 39.464844 21.660156 39.441406 21.613281 C 39.417969 21.5625 39.40625 21.507812 39.40625 21.449219 C 39.40625 21.390625 39.421875 21.332031 39.449219 21.28125 C 39.476562 21.230469 39.515625 21.1875 39.5625 21.148438 C 39.613281 21.113281 39.671875 21.085938 39.742188 21.066406 C 39.808594 21.046875 39.886719 21.035156 39.96875 21.035156 C 40.027344 21.035156 40.082031 21.039062 40.136719 21.050781 C 40.195312 21.058594 40.246094 21.074219 40.289062 21.089844 L 40.289062 21.015625 C 40.289062 20.933594 40.265625 20.867188 40.214844 20.820312 C 40.164062 20.773438 40.09375 20.75 39.996094 20.75 C 39.925781 20.75 39.855469 20.765625 39.789062 20.789062 C 39.722656 20.8125 39.652344 20.847656 39.582031 20.898438 L 39.480469 20.6875 C 39.648438 20.578125 39.832031 20.523438 40.027344 20.523438 C 40.21875 20.523438 40.363281 20.570312 40.46875 20.660156 C 40.574219 20.75 40.625 20.882812 40.625 21.054688 L 40.625 21.457031 C 40.625 21.488281 40.632812 21.515625 40.644531 21.527344 C 40.65625 21.542969 40.675781 21.550781 40.707031 21.554688 L 40.707031 21.835938 C 40.648438 21.84375 40.597656 21.851562 40.558594 21.851562 C 40.492188 21.851562 40.445312 21.835938 40.410156 21.808594 C 40.375 21.78125 40.355469 21.746094 40.347656 21.699219 L 40.339844 21.628906 C 40.28125 21.703125 40.210938 21.761719 40.125 21.800781 C 40.042969 21.839844 39.953125 21.859375 39.855469 21.859375 Z M 39.953125 21.617188 C 40.007812 21.617188 40.0625 21.609375 40.113281 21.589844 C 40.164062 21.570312 40.207031 21.542969 40.234375 21.507812 C 40.269531 21.480469 40.289062 21.449219 40.289062 21.414062 L 40.289062 21.269531 C 40.25 21.253906 40.207031 21.242188 40.160156 21.234375 C 40.113281 21.222656 40.066406 21.21875 40.023438 21.21875 C 39.9375 21.21875 39.863281 21.238281 39.808594 21.277344 C 39.753906 21.316406 39.726562 21.363281 39.726562 21.421875 C 39.726562 21.480469 39.75 21.527344 39.792969 21.5625 C 39.835938 21.597656 39.890625 21.617188 39.953125 21.617188 Z M 41.902344 21.859375 C 41.835938 21.859375 41.777344 21.847656 41.722656 21.828125 C 41.667969 21.808594 41.621094 21.777344 41.578125 21.742188 C 41.539062 21.707031 41.507812 21.660156 41.484375 21.613281 C 41.460938 21.5625 41.453125 21.507812 41.453125 21.449219 C 41.453125 21.390625 41.464844 21.332031 41.492188 21.28125 C 41.519531 21.230469 41.558594 21.1875 41.605469 21.148438 C 41.65625 21.113281 41.714844 21.085938 41.785156 21.066406 C 41.855469 21.046875 41.929688 21.035156 42.011719 21.035156 C 42.070312 21.035156 42.125 21.039062 42.183594 21.050781 C 42.238281 21.058594 42.289062 21.074219 42.332031 21.089844 L 42.332031 21.015625 C 42.332031 20.933594 42.308594 20.867188 42.257812 20.820312 C 42.207031 20.773438 42.136719 20.75 42.039062 20.75 C 41.96875 20.75 41.898438 20.765625 41.832031 20.789062 C 41.765625 20.8125 41.699219 20.847656 41.628906 20.898438 L 41.523438 20.6875 C 41.691406 20.578125 41.875 20.523438 42.070312 20.523438 C 42.261719 20.523438 42.40625 20.570312 42.511719 20.660156 C 42.617188 20.75 42.667969 20.882812 42.667969 21.054688 L 42.667969 21.457031 C 42.667969 21.488281 42.675781 21.515625 42.6875 21.527344 C 42.699219 21.542969 42.722656 21.550781 42.75 21.554688 L 42.75 21.835938 C 42.691406 21.84375 42.644531 21.851562 42.601562 21.851562 C 42.539062 21.851562 42.488281 21.835938 42.453125 21.808594 C 42.417969 21.78125 42.398438 21.746094 42.390625 21.699219 L 42.382812 21.628906 C 42.324219 21.703125 42.253906 21.761719 42.167969 21.800781 C 42.085938 21.839844 41.996094 21.859375 41.902344 21.859375 Z M 41.996094 21.617188 C 42.054688 21.617188 42.105469 21.609375 42.15625 21.589844 C 42.207031 21.570312 42.25 21.542969 42.277344 21.507812 C 42.3125 21.480469 42.332031 21.449219 42.332031 21.414062 L 42.332031 21.269531 C 42.292969 21.253906 42.25 21.242188 42.203125 21.234375 C 42.15625 21.222656 42.109375 21.21875 42.066406 21.21875 C 41.980469 21.21875 41.910156 21.238281 41.851562 21.277344 C 41.796875 21.316406 41.769531 21.363281 41.769531 21.421875 C 41.769531 21.480469 41.792969 21.527344 41.835938 21.5625 C 41.878906 21.597656 41.933594 21.617188 41.996094 21.617188 Z M 44.375 21.859375 C 44.269531 21.859375 44.179688 21.835938 44.101562 21.792969 C 44.027344 21.746094 43.964844 21.683594 43.921875 21.609375 L 43.921875 22.359375 L 43.585938 22.359375 L 43.585938 20.542969 L 43.878906 20.542969 L 43.878906 20.765625 C 43.929688 20.691406 43.992188 20.632812 44.066406 20.589844 C 44.144531 20.542969 44.234375 20.523438 44.332031 20.523438 C 44.421875 20.523438 44.503906 20.539062 44.578125 20.578125 C 44.65625 20.609375 44.71875 20.660156 44.773438 20.71875 C 44.828125 20.777344 44.871094 20.847656 44.902344 20.929688 C 44.933594 21.011719 44.949219 21.097656 44.949219 21.1875 C 44.949219 21.28125 44.933594 21.367188 44.90625 21.449219 C 44.878906 21.53125 44.835938 21.605469 44.785156 21.664062 C 44.734375 21.726562 44.675781 21.773438 44.605469 21.808594 C 44.535156 21.839844 44.457031 21.859375 44.375 21.859375 Z M 44.261719 21.578125 C 44.3125 21.578125 44.355469 21.566406 44.398438 21.546875 C 44.441406 21.523438 44.480469 21.496094 44.507812 21.460938 C 44.539062 21.425781 44.5625 21.382812 44.578125 21.335938 C 44.597656 21.285156 44.605469 21.238281 44.605469 21.1875 C 44.605469 21.132812 44.597656 21.082031 44.578125 21.035156 C 44.558594 20.988281 44.53125 20.949219 44.5 20.914062 C 44.46875 20.878906 44.429688 20.851562 44.382812 20.832031 C 44.339844 20.8125 44.292969 20.804688 44.242188 20.804688 C 44.210938 20.804688 44.175781 20.808594 44.144531 20.820312 C 44.109375 20.832031 44.078125 20.84375 44.050781 20.863281 C 44.023438 20.882812 43.996094 20.90625 43.972656 20.933594 C 43.949219 20.960938 43.933594 20.988281 43.921875 21.019531 L 43.921875 21.324219 C 43.953125 21.394531 44 21.457031 44.058594 21.507812 C 44.121094 21.554688 44.1875 21.578125 44.261719 21.578125 Z M 45.578125 21.859375 C 45.445312 21.859375 45.339844 21.816406 45.269531 21.730469 C 45.199219 21.644531 45.164062 21.519531 45.164062 21.351562 L 45.164062 20.542969 L 45.5 20.542969 L 45.5 21.28125 C 45.5 21.480469 45.574219 21.578125 45.71875 21.578125 C 45.785156 21.578125 45.847656 21.558594 45.90625 21.523438 C 45.96875 21.480469 46.019531 21.421875 46.058594 21.34375 L 46.058594 20.542969 L 46.394531 20.542969 L 46.394531 21.457031 C 46.394531 21.488281 46.402344 21.515625 46.414062 21.527344 C 46.425781 21.542969 46.445312 21.550781 46.476562 21.554688 L 46.476562 21.835938 C 46.441406 21.839844 46.414062 21.84375 46.390625 21.847656 C 46.367188 21.847656 46.347656 21.847656 46.328125 21.847656 C 46.269531 21.847656 46.21875 21.835938 46.183594 21.808594 C 46.144531 21.78125 46.125 21.742188 46.117188 21.695312 L 46.109375 21.59375 C 46.050781 21.679688 45.976562 21.746094 45.882812 21.792969 C 45.789062 21.835938 45.691406 21.859375 45.578125 21.859375 Z M 47.339844 21.859375 C 47.234375 21.859375 47.136719 21.839844 47.054688 21.808594 C 46.96875 21.769531 46.894531 21.722656 46.835938 21.660156 C 46.773438 21.601562 46.726562 21.53125 46.695312 21.449219 C 46.664062 21.371094 46.644531 21.285156 46.644531 21.195312 C 46.644531 21.105469 46.664062 21.019531 46.695312 20.9375 C 46.726562 20.855469 46.773438 20.785156 46.832031 20.722656 C 46.890625 20.660156 46.964844 20.613281 47.050781 20.578125 C 47.136719 20.539062 47.234375 20.523438 47.339844 20.523438 C 47.449219 20.523438 47.542969 20.539062 47.628906 20.578125 C 47.714844 20.613281 47.785156 20.660156 47.84375 20.722656 C 47.902344 20.78125 47.949219 20.851562 47.980469 20.933594 C 48.011719 21.015625 48.027344 21.097656 48.027344 21.183594 C 48.027344 21.207031 48.027344 21.226562 48.023438 21.246094 C 48.023438 21.265625 48.023438 21.28125 48.019531 21.296875 L 47.003906 21.296875 C 47.007812 21.347656 47.019531 21.390625 47.039062 21.429688 C 47.058594 21.46875 47.085938 21.503906 47.117188 21.53125 C 47.148438 21.558594 47.1875 21.582031 47.226562 21.59375 C 47.265625 21.609375 47.308594 21.617188 47.351562 21.617188 C 47.417969 21.617188 47.480469 21.601562 47.539062 21.570312 C 47.601562 21.539062 47.640625 21.496094 47.664062 21.441406 L 47.953125 21.523438 C 47.902344 21.621094 47.824219 21.703125 47.71875 21.765625 C 47.613281 21.828125 47.488281 21.859375 47.339844 21.859375 Z M 46.996094 21.082031 L 47.679688 21.082031 C 47.671875 20.984375 47.636719 20.90625 47.570312 20.851562 C 47.507812 20.789062 47.429688 20.761719 47.335938 20.761719 C 47.292969 20.761719 47.25 20.769531 47.207031 20.785156 C 47.171875 20.800781 47.136719 20.820312 47.105469 20.851562 C 47.074219 20.878906 47.050781 20.910156 47.03125 20.949219 C 47.011719 20.988281 47 21.035156 46.996094 21.082031 Z M 49.015625 20.53125 L 49.015625 20.832031 C 48.914062 20.832031 48.824219 20.851562 48.742188 20.890625 C 48.664062 20.925781 48.605469 20.980469 48.570312 21.054688 L 48.570312 21.835938 L 48.234375 21.835938 L 48.234375 20.542969 L 48.542969 20.542969 L 48.542969 20.820312 C 48.566406 20.777344 48.59375 20.738281 48.625 20.703125 C 48.65625 20.667969 48.691406 20.636719 48.726562 20.609375 C 48.765625 20.582031 48.800781 20.5625 48.839844 20.550781 C 48.875 20.535156 48.914062 20.527344 48.949219 20.527344 C 48.96875 20.527344 48.980469 20.527344 48.988281 20.527344 C 49 20.527344 49.007812 20.527344 49.015625 20.53125 Z M 49.925781 21.507812 L 49.992188 21.769531 C 49.949219 21.789062 49.894531 21.808594 49.828125 21.828125 C 49.761719 21.847656 49.695312 21.855469 49.621094 21.855469 C 49.574219 21.855469 49.53125 21.851562 49.488281 21.839844 C 49.449219 21.828125 49.414062 21.808594 49.378906 21.785156 C 49.351562 21.757812 49.324219 21.726562 49.308594 21.6875 C 49.289062 21.644531 49.28125 21.597656 49.28125 21.539062 L 49.28125 20.796875 L 49.105469 20.796875 L 49.105469 20.542969 L 49.28125 20.542969 L 49.28125 20.125 L 49.617188 20.125 L 49.617188 20.542969 L 49.894531 20.542969 L 49.894531 20.796875 L 49.617188 20.796875 L 49.617188 21.429688 C 49.617188 21.472656 49.628906 21.507812 49.652344 21.527344 C 49.675781 21.542969 49.707031 21.554688 49.742188 21.554688 C 49.777344 21.554688 49.8125 21.546875 49.84375 21.535156 C 49.878906 21.523438 49.90625 21.515625 49.925781 21.507812 Z M 50.527344 21.859375 C 50.464844 21.859375 50.40625 21.847656 50.351562 21.828125 C 50.292969 21.808594 50.246094 21.777344 50.207031 21.742188 C 50.167969 21.707031 50.132812 21.660156 50.109375 21.613281 C 50.089844 21.5625 50.078125 21.507812 50.078125 21.449219 C 50.078125 21.390625 50.09375 21.332031 50.117188 21.28125 C 50.148438 21.230469 50.1875 21.1875 50.234375 21.148438 C 50.285156 21.113281 50.34375 21.085938 50.414062 21.066406 C 50.480469 21.046875 50.554688 21.035156 50.636719 21.035156 C 50.695312 21.035156 50.753906 21.039062 50.808594 21.050781 C 50.867188 21.058594 50.917969 21.074219 50.960938 21.089844 L 50.960938 21.015625 C 50.960938 20.933594 50.933594 20.867188 50.882812 20.820312 C 50.835938 20.773438 50.761719 20.75 50.664062 20.75 C 50.59375 20.75 50.527344 20.765625 50.460938 20.789062 C 50.394531 20.8125 50.324219 20.847656 50.253906 20.898438 L 50.152344 20.6875 C 50.320312 20.578125 50.503906 20.523438 50.699219 20.523438 C 50.886719 20.523438 51.035156 20.570312 51.136719 20.660156 C 51.242188 20.75 51.296875 20.882812 51.296875 21.054688 L 51.296875 21.457031 C 51.296875 21.488281 51.300781 21.515625 51.3125 21.527344 C 51.328125 21.542969 51.347656 21.550781 51.375 21.554688 L 51.375 21.835938 C 51.320312 21.84375 51.269531 21.851562 51.226562 21.851562 C 51.164062 21.851562 51.117188 21.835938 51.082031 21.808594 C 51.046875 21.78125 51.027344 21.746094 51.015625 21.699219 L 51.011719 21.628906 C 50.953125 21.703125 50.878906 21.761719 50.796875 21.800781 C 50.710938 21.839844 50.625 21.859375 50.527344 21.859375 Z M 50.625 21.617188 C 50.679688 21.617188 50.734375 21.609375 50.785156 21.589844 C 50.835938 21.570312 50.875 21.542969 50.90625 21.507812 C 50.941406 21.480469 50.960938 21.449219 50.960938 21.414062 L 50.960938 21.269531 C 50.917969 21.253906 50.875 21.242188 50.828125 21.234375 C 50.78125 21.222656 50.738281 21.21875 50.695312 21.21875 C 50.605469 21.21875 50.535156 21.238281 50.480469 21.277344 C 50.425781 21.316406 50.398438 21.363281 50.398438 21.421875 C 50.398438 21.480469 50.417969 21.527344 50.460938 21.5625 C 50.507812 21.597656 50.558594 21.617188 50.625 21.617188 Z M 50.625 21.617188 " fill-opacity="1" fill-rule="nonzero"/></g></svg>