<svg xmlns="http://www.w3.org/2000/svg" version="1.1" xmlns:xlink="http://www.w3.org/1999/xlink" xmlns:svgjs="http://svgjs.com/svgjs" width="512" height="512" x="0" y="0" viewBox="0 0 32 32" style="enable-background:new 0 0 512 512" xml:space="preserve" class=""><g><g xmlns="http://www.w3.org/2000/svg"><path d="m26 32h-20c-3.314 0-6-2.686-6-6v-20c0-3.314 2.686-6 6-6h20c3.314 0 6 2.686 6 6v20c0 3.314-2.686 6-6 6z" fill="#e3f8fa" data-original="#e3f8fa" class=""></path></g><g xmlns="http://www.w3.org/2000/svg" fill="#26c6da"><path d="m19.335 22.667c0-.735.598-1.333 1.333-1.333s1.333.598 1.333 1.333-.597 1.333-1.332 1.333-1.334-.598-1.334-1.333z" fill="#26c6da" data-original="#26c6da" class=""></path><path d="m10.002 22.667c0-.735.598-1.333 1.333-1.333s1.333.598 1.333 1.333-.598 1.333-1.333 1.333-1.333-.598-1.333-1.333z" fill="#26c6da" data-original="#26c6da" class=""></path><path d="m9.439 23.333h.935c.276 0 .5-.224.5-.5s-.224-.5-.5-.5h-.935c-.068 0-.129-.041-.154-.104l-.271-.674c-.033-.082.003-.178.079-.215 4.833-2.336 9.477-2.651 13.803-.934.077.031.12.122.1.208l-.396 1.593c-.019.074-.085.126-.162.126h-.885c-.276 0-.5.224-.5.5s.224.5.5.5h.885c.536 0 1.002-.364 1.132-.885l.396-1.594c.142-.571-.16-1.163-.701-1.378-4.596-1.824-9.511-1.501-14.607.963-.551.265-.802.92-.572 1.49l.27.673c.18.444.604.731 1.083.731z" fill="#26c6da" data-original="#26c6da" class=""></path><path d="m12.229 19.573c0 .013.007.033.013.047l.293.733c.073.167.227.287.407.307l4.6.58c.08.007.153.013.233.013.547 0 1.06-.24 1.413-.673l1.013-1.233c.053-.067.093-.153.107-.233-2.653-.534-5.346-.361-8.079.459z" fill="#26c6da" data-original="#26c6da" class=""></path></g><path xmlns="http://www.w3.org/2000/svg" d="m23.661 9.217-3.5-1.19c-.104-.036-.217-.036-.322 0l-3.5 1.19c-.203.069-.339.259-.339.474v2.679c0 3.27 3.649 4.858 3.805 4.925.126.053.265.053.391 0 .155-.067 3.804-1.656 3.804-4.926v-2.678c0-.215-.136-.405-.339-.474zm-1.47 2.528-1.833 2.333c-.234.298-.671.341-.958.094l-1.167-1c-.28-.24-.313-.66-.072-.94.24-.279.661-.312.939-.072l.639.547 1.404-1.786c.227-.289.646-.34.936-.112.289.228.34.647.112.936z" fill="#8ce1eb" data-original="#8ce1eb"></path><path xmlns="http://www.w3.org/2000/svg" d="m12.275 22.333h7.453v1h-7.453z" fill="#26c6da" data-original="#26c6da" class=""></path></g></svg>