<svg xmlns="http://www.w3.org/2000/svg" version="1.1" xmlns:xlink="http://www.w3.org/1999/xlink" xmlns:svgjs="http://svgjs.com/svgjs" width="512" height="512" x="0" y="0" viewBox="0 0 32 32" style="enable-background:new 0 0 512 512" xml:space="preserve" class=""><g><path xmlns="http://www.w3.org/2000/svg" d="m26 32h-20c-3.314 0-6-2.686-6-6v-20c0-3.314 2.686-6 6-6h20c3.314 0 6 2.686 6 6v20c0 3.314-2.686 6-6 6z" fill="#e3f8fa" data-original="#e3f8fa"></path><path xmlns="http://www.w3.org/2000/svg" d="m23.292 22.667h-13c-.643 0-1.167-.523-1.167-1.167s.523-1.167 1.167-1.167h4c1.378 0 2.5-1.121 2.5-2.5s-1.122-2.5-2.5-2.5h-2.833c-.368 0-.667.299-.667.667s.298.667.667.667h2.833c.643 0 1.167.523 1.167 1.167s-.524 1.166-1.167 1.166h-4c-1.378 0-2.5 1.121-2.5 2.5s1.122 2.5 2.5 2.5h13c.368 0 .368-1.333 0-1.333z" fill="#8ce1eb" data-original="#8ce1eb" class=""></path><g xmlns="http://www.w3.org/2000/svg" fill="#26c6da"><path d="m11.292 8c-1.838 0-3.333 1.514-3.333 3.375 0 2.568 2.885 5.066 3.008 5.172.093.08.209.12.325.12s.232-.04.325-.12c.123-.105 3.008-2.603 3.008-5.172 0-1.861-1.495-3.375-3.333-3.375zm0 4.667c-.735 0-1.333-.598-1.333-1.333s.598-1.334 1.333-1.334 1.333.598 1.333 1.333-.598 1.334-1.333 1.334z" fill="#26c6da" data-original="#26c6da" class=""></path><path d="m22.625 23.333c0 .368.298.667.667.667.368 0 .667-.299.667-.667v-2.667h-1.333v2.667z" fill="#26c6da" data-original="#26c6da" class=""></path><path d="m18.458 20c-.188 0-.36-.105-.445-.273s-.07-.369.041-.521l1.119-1.539-1.119-1.539c-.111-.152-.126-.353-.041-.521s.257-.273.445-.273h5.5v4.666z" fill="#26c6da" data-original="#26c6da" class=""></path></g></g></svg>