<svg xmlns="http://www.w3.org/2000/svg" version="1.1" xmlns:xlink="http://www.w3.org/1999/xlink" xmlns:svgjs="http://svgjs.com/svgjs" width="512" height="512" x="0" y="0" viewBox="0 0 32 32" style="enable-background:new 0 0 512 512" xml:space="preserve" class=""><g><path xmlns="http://www.w3.org/2000/svg" d="m26 32h-20c-3.314 0-6-2.686-6-6v-20c0-3.314 2.686-6 6-6h20c3.314 0 6 2.686 6 6v20c0 3.314-2.686 6-6 6z" fill="#e3f8fa" data-original="#e3f8fa"></path><path xmlns="http://www.w3.org/2000/svg" d="m19.12 10.02-5.334-2c-.08-.027-.16-.027-.24 0l-5.334 2c-.126.047-.212.173-.212.313v4.287c0 6.08 5.54 7.36 5.594 7.373.026.007.046.007.073.007s.047 0 .073-.007c.027-.007 1.5-.347 2.927-1.5 0-.953.547-1.773 1.333-2.193.013-.98.5-1.853 1.24-2.393.06-.4.093-.833.093-1.287v-4.287c0-.14-.086-.266-.213-.313z" fill="#26c6da" data-original="#26c6da" class=""></path><path xmlns="http://www.w3.org/2000/svg" d="m22.834 19.333h-.167v-1c0-.919-.747-1.667-1.667-1.667s-1.667.748-1.667 1.667v1h-.167c-.642 0-1.166.524-1.166 1.167v2.333c0 .644.524 1.167 1.167 1.167h3.667c.643 0 1.166-.523 1.166-1.167v-2.333c0-.643-.523-1.167-1.166-1.167zm-2.5-1c0-.368.299-.667.667-.667s.667.299.667.667v1h-1.333v-1z" fill="#8ce1eb" data-original="#8ce1eb"></path></g></svg>