<svg xmlns="http://www.w3.org/2000/svg" version="1.1" xmlns:xlink="http://www.w3.org/1999/xlink" xmlns:svgjs="http://svgjs.com/svgjs" width="512" height="512" x="0" y="0" viewBox="0 0 128 128" style="enable-background:new 0 0 512 512" xml:space="preserve" class=""><g><path xmlns="http://www.w3.org/2000/svg" d="m64 4.6c-32.8 0-59.4 26.6-59.4 59.4s26.6 59.4 59.4 59.4 59.4-26.6 59.4-59.4c0-32.8-26.6-59.4-59.4-59.4zm0 115.3c-30.9 0-55.9-25-55.9-55.9s25-55.9 55.9-55.9 55.9 25 55.9 55.9c0 30.9-25 55.9-55.9 55.9z" fill="#27c6da" data-original="#000000" class=""></path><path xmlns="http://www.w3.org/2000/svg" d="m64 15.7c-26.7 0-48.3 21.6-48.3 48.3s21.6 48.3 48.3 48.3 48.3-21.6 48.3-48.3c0-26.7-21.6-48.3-48.3-48.3zm32.9 78.7-7.3-7.3c-.3-.3-.8-.5-1.2-.5h-48.8c-.5 0-.9.2-1.2.5l-7.3 7.3c-7.3-7.8-11.5-18-11.9-28.6h10.3c1 0 1.7-.8 1.8-1.7 0-18.1 14.6-32.7 32.7-32.7s32.7 14.6 32.7 32.7c0 1 .8 1.7 1.7 1.8h10.3c-.4 10.5-4.6 20.7-11.8 28.5zm-65.8-60.8 6.1 6.1c-5.7 6.2-9 14.2-9.4 22.6h-8.6c.5-10.7 4.7-20.9 11.9-28.7zm57.2 3.6c-6.2-5.7-14.2-9-22.6-9.4v-8.6c10.7.4 20.8 4.6 28.6 11.9zm-26-9.4c-8.4.4-16.4 3.7-22.6 9.4l-6.1-6.1c7.8-7.3 18-11.5 28.6-11.9v8.6zm37.9 34.4c-.4-8.4-3.7-16.4-9.4-22.6l6.1-6.1c7.3 7.8 11.5 18 11.9 28.6h-8.6zm-66.6 34.7 6.8-6.8h47.3l6.8 6.8c-17.2 15.9-43.8 15.9-60.9 0z" fill="#27c6da" data-original="#000000" class=""></path><path xmlns="http://www.w3.org/2000/svg" d="m80 45.5-11.7 11.7c-3.8-2.4-8.7-1.3-11.1 2.5s-1.3 8.7 2.5 11.1 8.7 1.3 11.1-2.5c1.7-2.6 1.7-6 0-8.6l11.7-11.7c.7-.7.7-1.8 0-2.5s-1.8-.6-2.5 0zm-16 23c-2.5 0-4.5-2-4.5-4.5s2-4.5 4.5-4.5 4.5 2 4.5 4.5-2 4.5-4.5 4.5z" fill="#27c6da" data-original="#000000" class=""></path><path xmlns="http://www.w3.org/2000/svg" d="m71.8 94.2h-15.6c-1 0-1.7.8-1.8 1.7v7c0 1 .8 1.7 1.7 1.8h15.6c1 0 1.7-.8 1.8-1.7v-7c.1-1-.7-1.8-1.7-1.8zm-1.7 7h-12.2v-3.5h12.1v3.5z" fill="#27c6da" data-original="#000000" class=""></path><g xmlns="http://www.w3.org/2000/svg"><path d="m51.3 73.4c-.9-.5-1.9-.1-2.4.7l-1.6 3h-1.1v-2.2c0-1-.8-1.8-1.8-1.8s-1.8.8-1.8 1.8v4 4c0 1 .8 1.8 1.8 1.8s1.8-.8 1.8-1.8v-2.2h1.1l1.6 3c.3.6.9.9 1.5.9.3 0 .6-.1.8-.2.9-.5 1.2-1.5.7-2.4l-1.7-3.1 1.7-3.1c.6-.9.3-2-.6-2.4z" fill="#27c6da" data-original="#000000" class=""></path><path d="m62.2 73.3c-.7-.2-1.5 0-1.9.6l-1.9 2.4-1.9-2.4c-.5-.6-1.2-.8-1.9-.6s-1.2.9-1.2 1.7v7.9c0 1 .8 1.8 1.8 1.8s1.8-.8 1.8-1.8v-2.9l.1.2c.7.8 2.1.8 2.8 0l.1-.2v2.8c0 1 .8 1.8 1.8 1.8s1.8-.8 1.8-1.8v-7.9c-.2-.7-.7-1.4-1.4-1.6z" fill="#27c6da" data-original="#000000" class=""></path><path d="m73.4 72.1c-.8-.5-1.9-.2-2.4.6l-6.2 10.5c-.5.8-.2 1.9.6 2.4.3.2.6.2.9.2.6 0 1.2-.3 1.5-.9l6.2-10.4c.5-.8.2-1.9-.6-2.4z" fill="#27c6da" data-original="#000000" class=""></path><path d="m83.5 73.2c-1 0-1.8.8-1.8 1.8v2.2h-2.4v-2.2c0-1-.8-1.8-1.8-1.8s-1.8.8-1.8 1.8v4 4c0 1 .8 1.8 1.8 1.8s1.8-.8 1.8-1.8v-2.2h2.4v2.2c0 1 .8 1.8 1.8 1.8s1.8-.8 1.8-1.8v-4-4c0-1-.8-1.8-1.8-1.8z" fill="#27c6da" data-original="#000000" class=""></path></g></g></svg>