<svg xmlns="http://www.w3.org/2000/svg" version="1.1" xmlns:xlink="http://www.w3.org/1999/xlink" xmlns:svgjs="http://svgjs.com/svgjs" width="512" height="512" x="0" y="0" viewBox="0 0 512 512" style="enable-background:new 0 0 512 512" xml:space="preserve" class=""><g><path xmlns="http://www.w3.org/2000/svg" d="m416 512h-320c-53.023438 0-96-42.976562-96-96v-320c0-53.023438 42.976562-96 96-96h320c53.023438 0 96 42.976562 96 96v320c0 53.023438-42.976562 96-96 96zm0 0" fill="#e3f8fa" data-original="#e3f8fa" class=""></path><path xmlns="http://www.w3.org/2000/svg" d="m328 224h-57.664062l9.601562-81.089844c.03125-.316406.0625-1.261718.0625-1.566406 0-7.359375-5.984375-13.34375-13.328125-13.34375-4.175781 0-8.160156 2-10.894531 5.664062l-82.449219 122.335938c-1.710937 2.289062-2.671875 5.136719-2.671875 8 0 7.359375 5.984375 13.328125 13.328125 13.328125h47.105469l-9.730469 91.953125c-.03125.285156-.046875 1.085938-.046875 1.375 0 7.359375 5.984375 13.328125 13.328125 13.328125 4.175781 0 8.160156-2 10.816406-5.550781l93.183594-133.121094c1.710937-2.289062 2.671875-5.136719 2.671875-8 .015625-7.328125-5.953125-13.3125-13.3125-13.3125zm0 0" fill="#26c6da" data-original="#26c6da"></path></g></svg>